<svg xmlns="http://www.w3.org/2000/svg" width="67" height="67" viewBox="0 0 67 67" fill="none">
  <path d="M44.8607 40.9999C45.5196 43.7881 45.5391 46.6893 44.9176 49.4861C44.296 52.2829 43.0496 54.9028 41.2718 57.1494C39.4939 59.3961 37.2307 61.2113 34.6517 62.4591C32.0727 63.7068 29.2447 64.3548 26.3797 64.3544V49.1645M44.8607 40.9999C50.9046 36.5973 55.8214 30.8275 59.2093 24.1616C62.5972 17.4957 64.3603 10.1229 64.3544 2.64552C56.8775 2.64012 49.5053 4.40338 42.84 7.7913C36.1748 11.1792 30.4054 16.0957 26.0031 22.1392M44.8639 40.9999C39.3636 45.023 33.0579 47.8082 26.3797 49.1645M26.0031 22.1392C23.2147 21.4797 20.3132 21.4598 17.516 22.0811C14.7188 22.7024 12.0985 23.9487 9.85143 25.7266C7.60438 27.5045 5.78886 29.7679 4.54092 32.3472C3.29298 34.9265 2.64499 37.7548 2.64551 40.6202H17.8354M26.0031 22.1392C21.9806 27.6386 19.1954 33.9431 17.8385 40.6202M26.3797 49.1645C26.0523 49.2311 25.7242 49.2944 25.3955 49.3544C22.5246 47.0778 19.9252 44.4785 17.6487 41.6075C17.7085 41.2778 17.7717 40.9486 17.8385 40.6202M10.7499 48.1835C8.66823 49.7315 7.04971 51.8195 6.06964 54.2214C5.08957 56.6233 4.78531 59.2476 5.18981 61.8101C7.75256 62.2142 10.377 61.9095 12.779 60.9288C15.1809 59.9482 17.2688 58.3291 18.8164 56.2468M47.7404 24.0063C47.7404 25.2652 47.2403 26.4726 46.3501 27.3628C45.4599 28.253 44.2525 28.7531 42.9936 28.7531C41.7347 28.7531 40.5273 28.253 39.6371 27.3628C38.7469 26.4726 38.2468 25.2652 38.2468 24.0063C38.2468 22.7473 38.7469 21.54 39.6371 20.6498C40.5273 19.7596 41.7347 19.2594 42.9936 19.2594C44.2525 19.2594 45.4599 19.7596 46.3501 20.6498C47.2403 21.54 47.7404 22.7473 47.7404 24.0063Z" stroke="#180344" stroke-width="3.9557" stroke-linecap="round" stroke-linejoin="round"/>
</svg>