<svg xmlns="http://www.w3.org/2000/svg" width="52" height="52" viewBox="0 0 52 52" fill="none">
  <path d="M43.0438 40.8585C38.4957 40.8585 34.0625 39.8445 29.7442 37.8165C25.4245 35.79 21.5991 33.1104 18.2681 29.778C14.9356 26.4469 12.256 22.6215 10.2295 18.3018C8.20149 13.9835 7.1875 9.55034 7.1875 5.00219C7.1875 4.36757 7.39904 3.83871 7.82212 3.41563C8.24521 2.99255 8.77406 2.78101 9.40869 2.78101H17.9761C18.4697 2.78101 18.9104 2.93966 19.2983 3.25697C19.6861 3.57429 19.9153 3.97974 19.9858 4.47334L21.3608 11.8773C21.4313 12.3709 21.4228 12.8201 21.3354 13.2248C21.2466 13.631 21.0435 13.9927 20.7262 14.31L15.5963 19.4928C17.0771 22.0313 18.9372 24.4111 21.1768 26.6323C23.4149 28.8535 25.8737 30.775 28.5532 32.3968L33.5244 27.4256C33.8418 27.1083 34.2564 26.87 34.7683 26.7106C35.2788 26.5527 35.7809 26.5089 36.2745 26.5794L43.5727 28.0602C44.0663 28.166 44.4717 28.4036 44.789 28.7731C45.1063 29.144 45.265 29.5763 45.265 30.0699V38.6373C45.265 39.2719 45.0535 39.8008 44.6304 40.2239C44.2073 40.647 43.6784 40.8585 43.0438 40.8585ZM13.5866 15.4735L17.0771 11.9831L16.178 7.01184H11.4712C11.6475 8.45737 11.8943 9.88528 12.2116 11.2956C12.5289 12.7058 12.9873 14.0985 13.5866 15.4735ZM32.5196 34.4065C33.8946 35.0059 35.2965 35.4818 36.7251 35.8344C38.1523 36.187 39.5886 36.4161 41.0342 36.5219V31.868L36.0629 30.8632L32.5196 34.4065Z" fill="#180344"/>
</svg>