<svg xmlns="http://www.w3.org/2000/svg" width="18" height="19" viewBox="0 0 18 19" fill="none">
  <path d="M6.13257 2.75967L5.50324 2.94926C4.94289 3.11824 4.44247 3.44379 4.06088 3.88757C3.67929 4.33136 3.43242 4.87492 3.34932 5.45427C3.08864 7.26939 3.67144 9.39172 5.07667 11.8256C6.47839 14.2534 8.02142 15.8175 9.71981 16.5021C10.2655 16.7221 10.8629 16.7807 11.4409 16.671C12.019 16.5613 12.5534 16.2879 12.9805 15.8833L13.4563 15.4322C13.7652 15.1398 13.9574 14.7452 13.9973 14.3218C14.0372 13.8983 13.922 13.4748 13.6731 13.1299L12.4829 11.4798C12.322 11.257 12.0954 11.0902 11.8349 11.0027C11.5744 10.9152 11.293 10.9114 11.0302 10.9918L9.23004 11.5421L9.18352 11.5509C8.98516 11.5799 8.52699 11.1507 7.95647 10.1624C7.35962 9.1284 7.23674 8.52365 7.40088 8.36742L8.31634 7.5134C8.65111 7.20134 8.87979 6.7923 8.97031 6.34368C9.06082 5.89505 9.00862 5.42935 8.82103 5.0119L8.23997 3.72077C8.06525 3.33224 7.75521 3.02051 7.36763 2.84368C6.98006 2.66685 6.54053 2.63699 6.13257 2.75967ZM7.44037 4.08064L8.01967 5.37176C8.13249 5.62212 8.16403 5.90152 8.10988 6.17073C8.05572 6.43994 7.91858 6.68541 7.71773 6.87266L6.79964 7.72756C6.21244 8.28404 6.4073 9.23373 7.19724 10.6012C7.9398 11.888 8.61739 12.5234 9.3459 12.4128L9.45474 12.39L11.2874 11.8309C11.375 11.804 11.4688 11.8052 11.5557 11.8343C11.6426 11.8634 11.7182 11.919 11.7719 11.9933L12.9621 13.6434C13.0867 13.8158 13.1445 14.0276 13.1246 14.2395C13.1048 14.4513 13.0087 14.6487 12.8541 14.795L12.3775 15.2461C12.0724 15.5349 11.6908 15.73 11.278 15.8083C10.8652 15.8865 10.4386 15.8447 10.049 15.6876C8.55859 15.0872 7.14985 13.6592 5.83766 11.3868C4.52195 9.10909 3.98918 7.17197 4.21826 5.5789C4.27756 5.165 4.45389 4.77665 4.72648 4.45959C4.99907 4.14252 5.35658 3.90995 5.75691 3.78923L6.38623 3.59965C6.59026 3.53834 6.80963 3.55333 7.00343 3.64183C7.19722 3.73033 7.35221 3.88629 7.43949 4.08064H7.44037Z" fill="white"/>
</svg>