<svg xmlns="http://www.w3.org/2000/svg" width="72" height="73" viewBox="0 0 72 73" fill="none">
  <path d="M61.3665 11.1335H61.362L68.904 12.641C69.309 12.722 69.642 13.019 69.759 13.4195C69.8181 13.6141 69.8234 13.821 69.7742 14.0183C69.7251 14.2156 69.6234 14.3959 69.48 14.54L63.3015 20.723C62.5623 21.4609 61.5604 21.8752 60.516 21.875H55.395L42.525 34.7495C42.7705 35.6766 42.8157 36.6454 42.6575 37.5913C42.4992 38.5373 42.1412 39.4386 41.6073 40.2353C41.0734 41.032 40.3759 41.7058 39.5612 42.2118C38.7464 42.7178 37.8332 43.0444 36.8824 43.1697C35.9316 43.2951 34.9649 43.2164 34.0469 42.9389C33.1289 42.6614 32.2805 42.1915 31.5583 41.5604C30.8362 40.9293 30.2568 40.1516 29.8587 39.279C29.4607 38.4065 29.2532 37.4591 29.25 36.5C29.2507 35.4646 29.4894 34.4431 29.9478 33.5146C30.4062 32.5861 31.0719 31.7754 31.8935 31.1451C32.7151 30.5149 33.6706 30.082 34.6862 29.8799C35.7018 29.6778 36.7502 29.7119 37.7505 29.9795L50.625 17.1005V11.984C50.625 10.94 51.039 9.93655 51.777 9.19855L57.96 3.01555C58.1041 2.87213 58.2844 2.77045 58.4817 2.72132C58.679 2.67219 58.886 2.67746 59.0805 2.73655C59.481 2.85355 59.778 3.18655 59.859 3.59155L61.3665 11.1335Z" fill="#180344"/>
  <path d="M9.00012 36.5C9.00474 40.3608 9.83731 44.1757 11.4417 47.6874C13.046 51.1991 15.3849 54.3259 18.3004 56.8568C21.2159 59.3878 24.6403 61.264 28.3426 62.359C32.0449 63.454 35.939 63.7422 39.7622 63.2042C43.5853 62.6663 47.2487 61.3147 50.5051 59.2405C53.7614 57.1664 56.5351 54.4181 58.639 51.1808C60.7429 47.9436 62.1281 44.2928 62.7011 40.4748C63.2741 36.6567 63.0216 32.7601 61.9606 29.048C61.8117 28.6143 61.7525 28.1548 61.7868 27.6975C61.8211 27.2402 61.9481 26.7947 62.16 26.3881C62.372 25.9814 62.6645 25.6222 63.0197 25.3322C63.375 25.0422 63.7855 24.8276 64.2263 24.7013C64.6672 24.575 65.1291 24.5398 65.584 24.5978C66.0389 24.6557 66.4772 24.8057 66.8723 25.0384C67.2674 25.2712 67.611 25.5819 67.8822 25.9517C68.1533 26.3215 68.3464 26.7427 68.4496 27.1895C70.504 34.3783 70.1137 42.0458 67.3401 48.989C64.5665 55.9321 59.5665 61.7581 53.1245 65.5529C46.6824 69.3477 39.1629 70.8966 31.7456 69.9565C24.3283 69.0165 17.4328 65.6408 12.1411 60.359C6.85516 55.0685 3.47581 48.1725 2.53364 40.7534C1.59146 33.3344 3.13982 25.8125 6.93562 19.3688C10.7314 12.925 16.5597 7.92434 23.5054 5.15179C30.4511 2.37924 38.1209 1.99185 45.3106 4.05045C46.1667 4.30071 46.8889 4.87966 47.3194 5.66079C47.75 6.44192 47.8538 7.36171 47.6082 8.21915C47.3626 9.07659 46.7876 9.80196 46.0089 10.2367C45.2301 10.6715 44.3109 10.7803 43.4521 10.5395C39.4317 9.38595 35.1984 9.18209 31.0857 9.94395C26.9731 10.7058 23.0937 12.4126 19.7533 14.9296C16.4129 17.4467 13.7028 20.7053 11.8367 24.4486C9.97067 28.1918 8.99961 32.3174 9.00012 36.5Z" fill="#180344"/>
  <path d="M22.5 36.5001C22.5002 38.9597 23.172 41.3726 24.4429 43.4785C25.7138 45.5844 27.5355 47.3034 29.7115 48.45C31.8876 49.5966 34.3354 50.1273 36.7909 49.9849C39.2464 49.8426 41.6165 49.0325 43.6455 47.6421C45.674 46.2481 47.2829 44.3261 48.2981 42.0839C49.3134 39.8417 49.6963 37.3646 49.4055 34.9206C49.3268 34.3275 49.4076 33.7241 49.6397 33.1727C49.8717 32.6212 50.2465 32.1415 50.7255 31.7831C51.2045 31.4246 51.7704 31.2003 52.365 31.1333C52.9595 31.0662 53.5611 31.1588 54.108 31.4016C54.6547 31.6411 55.128 32.0215 55.4798 32.5037C55.8316 32.9859 56.0492 33.5528 56.1105 34.1466C56.5994 38.323 55.7761 42.5481 53.7548 46.2354C51.7334 49.9227 48.6144 52.8892 44.8305 54.7234C41.0466 56.5575 36.7856 57.1682 32.6389 56.4707C28.4922 55.7732 24.6654 53.8021 21.6898 50.831C18.7142 47.8599 16.7373 44.0362 16.0335 39.8905C15.3297 35.7448 15.9339 31.4829 17.7623 27.6963C19.5907 23.9096 22.5525 20.786 26.2367 18.7591C29.9209 16.7322 34.1448 15.9024 38.322 16.3851C38.7692 16.4266 39.2037 16.5569 39.6 16.7685C39.9962 16.9801 40.3462 17.2687 40.6295 17.6173C40.9128 17.9659 41.1236 18.3676 41.2496 18.7988C41.3756 19.2299 41.4143 19.6819 41.3634 20.1282C41.3125 20.5745 41.173 21.0062 40.9531 21.3979C40.7332 21.7895 40.4373 22.1334 40.0828 22.4092C39.7282 22.6851 39.3222 22.8874 38.8885 23.0043C38.4548 23.1212 38.0021 23.1504 37.557 23.0901C35.6654 22.8704 33.7488 23.0535 31.933 23.6271C30.1172 24.2008 28.4434 25.1521 27.0213 26.4186C25.5993 27.6851 24.4613 29.2381 23.682 30.9756C22.9028 32.7131 22.4999 34.5958 22.5 36.5001Z" fill="#180344"/>
</svg>