<svg xmlns="http://www.w3.org/2000/svg" width="72" height="72" viewBox="0 0 72 72" fill="none">
  <g clip-path="url(#clip0_197_5334)">
    <path d="M64.7803 39.6731C64.0445 39.1061 63.2011 38.6947 62.3012 38.4641C61.4014 38.2335 60.4641 38.1884 59.5462 38.3316C64.8281 32.9991 67.5 27.6975 67.5 22.5C67.5 15.0553 61.5122 9.00002 54.1519 9.00002C52.1989 8.98776 50.2669 9.40312 48.4915 10.217C46.7162 11.0308 45.1404 12.2234 43.875 13.711C42.6096 12.2234 41.0338 11.0308 39.2585 10.217C37.4831 9.40312 35.5511 8.98776 33.5981 9.00002C26.2378 9.00002 20.25 15.0553 20.25 22.5C20.25 25.5938 21.1612 28.6003 23.0794 31.7813C21.5084 32.1793 20.0748 32.9957 18.9309 34.1438L12.5691 40.5H4.5C3.30653 40.5 2.16193 40.9741 1.31802 41.818C0.474106 42.662 0 43.8065 0 45L0 56.25C0 57.4435 0.474106 58.5881 1.31802 59.432C2.16193 60.2759 3.30653 60.75 4.5 60.75H33.75C33.934 60.7501 34.1172 60.7274 34.2956 60.6825L52.2956 56.1825C52.4104 56.1552 52.5224 56.1176 52.6303 56.07L63.5625 51.4181L63.6862 51.3619C64.7369 50.8369 65.6366 50.053 66.3006 49.0842C66.9646 48.1154 67.3711 46.9935 67.4816 45.8242C67.5922 44.6548 67.4033 43.4766 66.9327 42.4005C66.462 41.3244 65.7252 40.3858 64.7916 39.6731H64.7803ZM61.7147 47.3091L51.0272 51.8597L33.4688 56.25H15.75V43.681L22.1147 37.3191C22.531 36.8994 23.0267 36.5667 23.5727 36.3402C24.1188 36.1138 24.7045 35.9981 25.2956 36H39.375C40.2701 36 41.1285 36.3556 41.7615 36.9885C42.3944 37.6215 42.75 38.4799 42.75 39.375C42.75 40.2701 42.3944 41.1286 41.7615 41.7615C41.1285 42.3944 40.2701 42.75 39.375 42.75H31.5C30.9033 42.75 30.331 42.9871 29.909 43.409C29.4871 43.831 29.25 44.4033 29.25 45C29.25 45.5968 29.4871 46.1691 29.909 46.591C30.331 47.013 30.9033 47.25 31.5 47.25H40.5C40.6694 47.2495 40.8382 47.2307 41.0034 47.1938L59.8472 42.8597L59.9344 42.8372C60.5096 42.6775 61.1236 42.7362 61.6582 43.002C62.1927 43.2677 62.6101 43.7218 62.8301 44.2768C63.05 44.8318 63.0568 45.4486 62.8494 46.0084C62.6419 46.5682 62.2348 47.0314 61.7062 47.3091H61.7147Z" fill="#180344"/>
  </g>
  <defs>
    <clipPath id="clip0_197_5334">
      <rect width="72" height="72" fill="white"/>
    </clipPath>
  </defs>
</svg>