<svg xmlns="http://www.w3.org/2000/svg" width="72" height="73" viewBox="0 0 72 73" fill="none">
  <path d="M35.7102 65.149C40.4892 65.149 43.2192 62.905 43.8662 59.998H27.5562C28.2032 62.905 30.9312 65.149 35.7102 65.149Z" fill="#D0CFCE"/>
  <path d="M45.4999 10.9092C45.4999 10.9092 33.2699 7.45215 27.2999 12.1782C21.3309 16.9042 19.6489 27.7782 19.6489 27.7782C20.2339 29.9911 23.8749 36.2712 23.8749 36.2712C24.4149 37.1821 26.1279 44.2521 27.1239 48.1311H44.2939C45.1599 45.2861 48.6439 34.4812 49.0989 33.4212C49.6829 32.0582 50.6789 29.4052 51.1819 28.4042C52.3919 25.9952 51.7199 23.9492 51.7199 21.3772C51.7199 15.8902 49.8179 13.6512 45.4989 10.9072L45.4999 10.9092Z" fill="#180344"/>
  <path d="M35.7099 7.70197C27.1779 7.70197 19.2099 14.454 19.2099 22.982C19.2099 24.061 18.9459 27.473 20.4269 27.473C20.4269 27.473 22.8199 19.648 28.7889 14.923C34.7579 10.198 44.3089 11.198 44.3089 11.198C43.6449 9.15297 38.7589 7.69897 35.7129 7.69897L35.7099 7.70197Z" fill="white"/>
  <path d="M52.5502 24.2492C52.5502 28.2342 50.7652 30.1572 48.7962 34.7492C48.2932 35.9212 44.5852 48.1292 44.5852 48.1292H27.4152C27.4152 48.1292 24.4342 36.4592 23.8692 35.5092C21.4992 31.5112 19.4502 28.5992 19.4502 24.2492C19.4502 15.1082 26.8602 7.69922 36.0002 7.69922C45.1412 7.69922 52.5502 15.1092 52.5502 24.2492Z" stroke="black" stroke-width="2" stroke-miterlimit="10" stroke-linecap="round" stroke-linejoin="round"/>
  <path d="M36.0003 47.7192V35.7792V47.7192ZM41.9703 35.7792H30.0303H41.9703Z" fill="black"/>
  <path d="M36.0003 47.7192V35.7792M41.9703 35.7792H30.0303" stroke="black" stroke-width="2" stroke-miterlimit="10" stroke-linecap="round" stroke-linejoin="round"/>
  <path d="M44.1601 59.2892C44.1601 62.5292 40.5091 65.1562 36.0051 65.1562C31.5011 65.1562 27.8501 62.5292 27.8501 59.2892H44.1601Z" stroke="black" stroke-width="1.696" stroke-miterlimit="10" stroke-linecap="round" stroke-linejoin="round"/>
  <path d="M27.9902 55.4798L44.0102 52.0098L27.9902 55.4798Z" fill="black"/>
  <path d="M27.9902 55.4798L44.0102 52.0098" stroke="black" stroke-width="1.965" stroke-miterlimit="10" stroke-linecap="round" stroke-linejoin="round"/>
  <path d="M38.2 56.5699L43.98 55.3899L38.2 56.5699ZM28.02 52.0999L33.8 50.9199L28.02 52.0999Z" fill="black"/>
  <path d="M38.2 56.5699L43.98 55.3899M28.02 52.0999L33.8 50.9199" stroke="black" stroke-width="2" stroke-miterlimit="10" stroke-linecap="round" stroke-linejoin="round"/>
</svg>