<svg xmlns="http://www.w3.org/2000/svg" width="90" height="72" viewBox="0 0 90 72" fill="none">
  <path d="M50.625 10.125C50.625 8.63316 50.0324 7.20242 48.9775 6.14752C47.9226 5.09263 46.4918 4.5 45 4.5C43.5082 4.5 42.0774 5.09263 41.0225 6.14752C39.9676 7.20242 39.375 8.63316 39.375 10.125C39.375 11.6168 39.9676 13.0476 41.0225 14.1025C42.0774 15.1574 43.5082 15.75 45 15.75C46.4918 15.75 47.9226 15.1574 48.9775 14.1025C50.0324 13.0476 50.625 11.6168 50.625 10.125ZM20.25 29.25C21.7418 29.25 23.1726 28.6574 24.2275 27.6025C25.2824 26.5476 25.875 25.1168 25.875 23.625C25.875 22.1332 25.2824 20.7024 24.2275 19.6475C23.1726 18.5926 21.7418 18 20.25 18C18.7582 18 17.3274 18.5926 16.2725 19.6475C15.2176 20.7024 14.625 22.1332 14.625 23.625C14.625 25.1168 15.2176 26.5476 16.2725 27.6025C17.3274 28.6574 18.7582 29.25 20.25 29.25ZM4.5 58.5C2.01094 58.5 0 60.5109 0 63C0 65.4891 2.01094 67.5 4.5 67.5H85.5C87.9891 67.5 90 65.4891 90 63C90 60.5109 87.9891 58.5 85.5 58.5H4.5ZM69.75 29.25C71.2418 29.25 72.6726 28.6574 73.7275 27.6025C74.7824 26.5476 75.375 25.1168 75.375 23.625C75.375 22.1332 74.7824 20.7024 73.7275 19.6475C72.6726 18.5926 71.2418 18 69.75 18C68.2582 18 66.8274 18.5926 65.7725 19.6475C64.7176 20.7024 64.125 22.1332 64.125 23.625C64.125 25.1168 64.7176 26.5476 65.7725 27.6025C66.8274 28.6574 68.2582 29.25 69.75 29.25ZM28.125 44.0859L31.9078 51.1031C32.7938 52.7484 34.8328 53.3531 36.4781 52.4813C38.1234 51.6094 38.7281 49.5563 37.8563 47.9109L32.7516 38.4188C32.9906 38.1797 33.2016 37.9125 33.3563 37.6031L37.125 30.5859V38.25C37.125 40.7391 39.1359 42.75 41.625 42.75H48.375C50.8641 42.75 52.875 40.7391 52.875 38.25V30.5859L56.6578 37.6031C56.8266 37.9125 57.0234 38.1797 57.2625 38.4188L52.1578 47.9109C51.2719 49.5563 51.8906 51.5953 53.5359 52.4813C55.1813 53.3672 57.2203 52.7484 58.1063 51.1031L61.875 44.0859V49.5C61.875 51.9891 63.8859 54 66.375 54H73.125C75.6141 54 77.625 51.9891 77.625 49.5V44.0859L81.4078 51.1031C82.2938 52.7484 84.3328 53.3531 85.9781 52.4813C87.6234 51.6094 88.2281 49.5563 87.3563 47.9109L82.0266 38.025C79.875 34.0172 75.6844 31.5141 71.1281 31.5141H68.3719C66.0797 31.5141 63.8859 32.1469 61.9875 33.2859L57.2625 24.525C55.1109 20.5172 50.9203 18.0141 46.3641 18.0141H43.6219C39.0656 18.0141 34.8891 20.5172 32.7234 24.525L27.9984 33.2859C26.1 32.1469 23.9062 31.5141 21.6141 31.5141H18.8719C14.3156 31.5141 10.1391 34.0172 7.97344 38.025L2.65781 47.8969C1.77187 49.5422 2.39063 51.5812 4.03594 52.4672C5.68125 53.3531 7.72031 52.7344 8.60625 51.0891L12.375 44.0859V49.5C12.375 51.9891 14.3859 54 16.875 54H23.625C26.1141 54 28.125 51.9891 28.125 49.5V44.0859Z" fill="#180344"/>
</svg>