<svg width="130" height="130" viewBox="0 0 130 130" fill="none" xmlns="http://www.w3.org/2000/svg">
<path opacity="0.5" d="M113.75 86.6555V54.1555C113.75 38.8372 113.75 31.178 108.989 26.4168C104.829 22.2568 98.4479 21.7314 86.6667 21.6664H43.3333C31.5521 21.7314 25.1712 22.2568 21.0112 26.4168C16.25 31.178 16.25 38.8372 16.25 54.1555V86.6555C16.25 101.979 16.25 109.638 21.0112 114.4C25.7671 119.156 33.4317 119.156 48.75 119.156H81.25C96.5683 119.156 104.233 119.156 108.989 114.4C113.75 109.633 113.75 101.979 113.75 86.6555Z" fill="#180344"/>
<path d="M43.334 18.9582C43.334 16.8033 44.19 14.7367 45.7137 13.2129C47.2375 11.6892 49.3041 10.8332 51.459 10.8332H78.5423C80.6972 10.8332 82.7638 11.6892 84.2876 13.2129C85.8113 14.7367 86.6673 16.8033 86.6673 18.9582V24.3749C86.6673 26.5297 85.8113 28.5964 84.2876 30.1201C82.7638 31.6438 80.6972 32.4999 78.5423 32.4999H51.459C49.3041 32.4999 47.2375 31.6438 45.7137 30.1201C44.19 28.5964 43.334 26.5297 43.334 24.3749V18.9582Z" fill="#180344"/>
<path fill-rule="evenodd" clip-rule="evenodd" d="M33.8535 56.8747C33.8535 55.7973 34.2815 54.7639 35.0434 54.0021C35.8053 53.2402 36.8386 52.8122 37.916 52.8122H92.0827C93.1601 52.8122 94.1934 53.2402 94.9553 54.0021C95.7172 54.7639 96.1452 55.7973 96.1452 56.8747C96.1452 57.9521 95.7172 58.9854 94.9553 59.7473C94.1934 60.5092 93.1601 60.9372 92.0827 60.9372H37.916C36.8386 60.9372 35.8053 60.5092 35.0434 59.7473C34.2815 58.9854 33.8535 57.9521 33.8535 56.8747ZM39.2702 75.833C39.2702 74.7556 39.6982 73.7223 40.4601 72.9604C41.2219 72.1985 42.2552 71.7705 43.3327 71.7705H86.666C87.7435 71.7705 88.7768 72.1985 89.5386 72.9604C90.3005 73.7223 90.7285 74.7556 90.7285 75.833C90.7285 76.9105 90.3005 77.9438 89.5386 78.7056C88.7768 79.4675 87.7435 79.8955 86.666 79.8955H43.3327C42.2552 79.8955 41.2219 79.4675 40.4601 78.7056C39.6982 77.9438 39.2702 76.9105 39.2702 75.833ZM44.6868 94.7914C44.6868 93.7139 45.1149 92.6806 45.8767 91.9187C46.6386 91.1569 47.6719 90.7289 48.7493 90.7289H81.2493C82.3268 90.7289 83.3601 91.1569 84.122 91.9187C84.8838 92.6806 85.3118 93.7139 85.3118 94.7914C85.3118 95.8688 84.8838 96.9021 84.122 97.664C83.3601 98.4258 82.3268 98.8539 81.2493 98.8539H48.7493C47.6719 98.8539 46.6386 98.4258 45.8767 97.664C45.1149 96.9021 44.6868 95.8688 44.6868 94.7914Z" fill="#180344"/>
</svg>
