<svg xmlns="http://www.w3.org/2000/svg" width="58" height="55" viewBox="0 0 58 55" fill="none">
  <g clip-path="url(#clip0_182_4787)">
    <path d="M47.114 49.5191L43.4023 45.8074L47.5779 41.5656H36.5093V36.2632H47.5779L43.4023 32.0214L47.114 28.3097L57.7186 38.9144L47.114 49.5191ZM9.99765 41.5656C8.5395 41.5656 7.29169 41.0468 6.2542 40.0093C5.21494 38.9701 4.69531 37.7214 4.69531 36.2632V9.75155C4.69531 8.29341 5.21494 7.04471 6.2542 6.00545C7.29169 4.96796 8.5395 4.44922 9.99765 4.44922H44.4628C45.921 4.44922 47.1697 4.96796 48.2089 6.00545C49.2464 7.04471 49.7651 8.29341 49.7651 9.75155V23.2725C49.3233 23.1841 48.8814 23.1179 48.4396 23.0737C47.9977 23.0295 47.5558 23.0074 47.114 23.0074C46.6721 23.0074 46.2303 23.018 45.7884 23.0392C45.3465 23.0622 44.9047 23.1179 44.4628 23.2062V13.4632L26.9651 25.6586L9.99765 13.5295V36.2632H31.4058C31.3174 36.7051 31.2618 37.1469 31.2388 37.5888C31.2176 38.0307 31.207 38.4725 31.207 38.9144C31.207 39.3563 31.2291 39.7981 31.2733 40.24C31.3174 40.6818 31.3837 41.1237 31.4721 41.5656H9.99765ZM13.8418 9.75155L26.9651 19.1632L40.4861 9.75155H13.8418Z" fill="#180344"/>
  </g>
  <defs>
    <clipPath id="clip0_182_4787">
      <rect width="57.0001" height="53.0233" fill="white" transform="translate(0.71875 0.988281)"/>
    </clipPath>
  </defs>
</svg>