<svg width="1440" height="478" viewBox="0 0 1440 478" fill="none" xmlns="http://www.w3.org/2000/svg">
<path fill-rule="evenodd" clip-rule="evenodd" d="M0 44L60 58.6667C120 73.3333 240 102.667 360 102.667C480 102.667 600 73.3333 720 73.3333C840 73.3333 960 102.667 1080 95.3333C1200 88 1320 44 1380 22L1440 0V264H1380C1320 264 1200 264 1080 264C960 264 840 264 720 264C600 264 480 264 360 264C240 264 120 264 60 264H0V44Z" fill="#180344"/>
<rect y="151" width="1440" height="387" fill="#180344"/>
<path d="M306.849 480.11C268.044 481.702 141.358 495.586 101.177 497.032C60.9949 498.478 48.5923 463.382 78.0245 446.388C107.457 429.395 124.456 438.597 124.456 438.597C124.456 438.597 120.285 412.163 143.77 402.513C167.251 392.865 195.554 403.659 197.251 434.412C197.251 434.412 197.369 424.919 215.043 417.99C232.716 411.061 261.332 415.191 279.162 429.602C296.991 444.013 291.034 455.375 285.581 459.596C285.581 459.596 318.874 454.753 339.024 460.661C359.175 466.57 345.653 478.517 306.849 480.11Z" fill="#E0D3FA" fill-opacity="0.2"/>
<path d="M1364.07 467.314C1331.31 466.038 1225.07 470.78 1191.12 469.251C1157.17 467.722 1143.7 430.794 1167.22 415.571C1190.75 400.347 1205.93 411.061 1205.93 411.061C1205.93 411.061 1200.17 383.635 1219.27 375.498C1238.37 367.363 1263.27 380.556 1267.3 412.226C1267.3 412.226 1266.6 402.498 1281 396.716C1295.41 390.934 1320.02 397.315 1336.35 413.433C1352.68 429.551 1348.58 440.758 1344.31 444.679C1344.31 444.679 1372.13 442.207 1389.72 449.778C1407.3 457.349 1396.84 468.589 1364.07 467.314Z" fill="#E0D3FA" fill-opacity="0.2"/>
</svg>
