<svg width="1440" height="538" viewBox="0 0 1440 538" fill="none" xmlns="http://www.w3.org/2000/svg">
<path fill-rule="evenodd" clip-rule="evenodd" d="M0 44L60 58.6667C120 73.3333 240 102.667 360 102.667C480 102.667 600 73.3333 720 73.3333C840 73.3333 960 102.667 1080 95.3333C1200 88 1320 44 1380 22L1440 0V264H1380C1320 264 1200 264 1080 264C960 264 840 264 720 264C600 264 480 264 360 264C240 264 120 264 60 264H0V44Z" fill="#180344"/>
<rect y="151" width="1440" height="387" fill="#180344"/>
<path d="M316.326 453.407C276.202 454.683 145.311 468.054 103.761 469.161C62.2104 470.268 48.9628 432.949 79.2081 415.254C109.453 397.559 127.148 407.49 127.148 407.49C127.148 407.49 122.519 379.437 146.7 369.46C170.877 359.486 200.284 371.222 202.405 403.826C202.405 403.826 202.415 393.768 220.615 386.614C238.816 379.459 268.468 384.137 287.084 399.596C305.699 415.055 299.672 427.031 294.081 431.445C294.081 431.445 328.465 426.666 349.381 433.14C370.296 439.614 356.45 452.13 316.326 453.407Z" fill="#E0D3FA" fill-opacity="0.2"/>
<path d="M1355.47 436.911C1314.88 435.56 1183.2 442.045 1141.15 440.39C1099.09 438.736 1082.67 393.627 1111.92 374.844C1141.18 356.062 1159.92 369.077 1159.92 369.077C1159.92 369.077 1152.98 335.548 1176.71 325.467C1200.43 315.388 1231.19 331.375 1235.96 370.11C1235.96 370.11 1235.16 358.208 1253.04 351.04C1270.93 343.871 1301.38 351.523 1321.5 371.145C1341.62 390.767 1336.46 404.51 1331.15 409.335C1331.15 409.335 1365.63 406.132 1387.37 415.286C1409.1 424.439 1396.06 438.263 1355.47 436.911Z" fill="#E0D3FA" fill-opacity="0.2"/>
</svg>
