<svg width="28" height="28" viewBox="0 0 28 28" fill="none" xmlns="http://www.w3.org/2000/svg">
<path d="M14.2859 2.84098C17.3212 2.84098 17.6999 2.85215 18.8908 2.90801C20.0805 2.96387 20.8905 3.15043 21.6032 3.42748C22.3405 3.71123 22.9617 4.09553 23.5828 4.71555C24.1509 5.274 24.5904 5.94953 24.8709 6.69512C25.1468 7.40674 25.3345 8.21779 25.3903 9.40755C25.4428 10.5984 25.4574 10.9771 25.4574 14.0124C25.4574 17.0477 25.4462 17.4264 25.3903 18.6173C25.3345 19.807 25.1468 20.617 24.8709 21.3297C24.5912 22.0757 24.1516 22.7514 23.5828 23.3093C23.0242 23.8771 22.3487 24.3167 21.6032 24.5973C20.8916 24.8733 20.0805 25.061 18.8908 25.1168C17.6999 25.1693 17.3212 25.1838 14.2859 25.1838C11.2507 25.1838 10.8719 25.1727 9.68107 25.1168C8.49131 25.061 7.68138 24.8733 6.96864 24.5973C6.22276 24.3175 5.54711 23.8778 4.98907 23.3093C4.4209 22.7509 3.98133 22.0754 3.701 21.3297C3.42395 20.6181 3.23739 19.807 3.18153 18.6173C3.12902 17.4264 3.1145 17.0477 3.1145 14.0124C3.1145 10.9771 3.12567 10.5984 3.18153 9.40755C3.23739 8.21667 3.42395 7.40786 3.701 6.69512C3.98055 5.94907 4.42022 5.27336 4.98907 4.71555C5.54727 4.14718 6.22287 3.70758 6.96864 3.42748C7.68138 3.15043 8.49019 2.96387 9.68107 2.90801C10.8719 2.8555 11.2507 2.84098 14.2859 2.84098ZM14.2859 8.42669C12.8045 8.42669 11.3838 9.01519 10.3362 10.0627C9.28871 11.1102 8.70022 12.531 8.70022 14.0124C8.70022 15.4938 9.28871 16.9146 10.3362 17.9621C11.3838 19.0096 12.8045 19.5981 14.2859 19.5981C15.7674 19.5981 17.1881 19.0096 18.2356 17.9621C19.2832 16.9146 19.8716 15.4938 19.8716 14.0124C19.8716 12.531 19.2832 11.1102 18.2356 10.0627C17.1881 9.01519 15.7674 8.42669 14.2859 8.42669ZM21.5474 8.14741C21.5474 7.77705 21.4002 7.42187 21.1384 7.15998C20.8765 6.8981 20.5213 6.75098 20.1509 6.75098C19.7806 6.75098 19.4254 6.8981 19.1635 7.15998C18.9016 7.42187 18.7545 7.77705 18.7545 8.14741C18.7545 8.51776 18.9016 8.87295 19.1635 9.13483C19.4254 9.39671 19.7806 9.54384 20.1509 9.54384C20.5213 9.54384 20.8765 9.39671 21.1384 9.13483C21.4002 8.87295 21.5474 8.51776 21.5474 8.14741ZM14.2859 10.661C15.1748 10.661 16.0272 11.0141 16.6557 11.6426C17.2843 12.2711 17.6374 13.1236 17.6374 14.0124C17.6374 14.9013 17.2843 15.7537 16.6557 16.3822C16.0272 17.0107 15.1748 17.3638 14.2859 17.3638C13.3971 17.3638 12.5446 17.0107 11.9161 16.3822C11.2876 15.7537 10.9345 14.9013 10.9345 14.0124C10.9345 13.1236 11.2876 12.2711 11.9161 11.6426C12.5446 11.0141 13.3971 10.661 14.2859 10.661Z" fill="#180344"/>
</svg>
