<svg xmlns="http://www.w3.org/2000/svg" width="30" height="29" viewBox="0 0 30 29" fill="none">
  <path d="M8.94841 0.5C4.28545 0.5 0.492432 4.16561 0.492432 8.66895V20.3356C0.492432 24.8378 4.28896 28.5 8.95312 28.5H21.0365C25.6994 28.5 29.4924 24.8344 29.4924 20.3311V8.66439C29.4924 4.16222 25.6959 0.5 21.0317 0.5H8.94841ZM23.4508 5.16667C24.1178 5.16667 24.6591 5.68933 24.6591 6.33333C24.6591 6.97733 24.1178 7.5 23.4508 7.5C22.7838 7.5 22.2424 6.97733 22.2424 6.33333C22.2424 5.68933 22.7838 5.16667 23.4508 5.16667ZM14.9924 7.5C18.9908 7.5 22.2424 10.6395 22.2424 14.5C22.2424 18.3605 18.9908 21.5 14.9924 21.5C10.9941 21.5 7.74243 18.3605 7.74243 14.5C7.74243 10.6395 10.9941 7.5 14.9924 7.5ZM14.9924 9.83333C13.7106 9.83333 12.4812 10.325 11.5747 11.2002C10.6683 12.0753 10.1591 13.2623 10.1591 14.5C10.1591 15.7377 10.6683 16.9247 11.5747 17.7998C12.4812 18.675 13.7106 19.1667 14.9924 19.1667C16.2743 19.1667 17.5037 18.675 18.4101 17.7998C19.3165 16.9247 19.8258 15.7377 19.8258 14.5C19.8258 13.2623 19.3165 12.0753 18.4101 11.2002C17.5037 10.325 16.2743 9.83333 14.9924 9.83333Z" fill="white"/>
</svg>