<svg width="25" height="25" viewBox="0 0 25 25" fill="none" xmlns="http://www.w3.org/2000/svg">
<g clip-path="url(#clip0_179_4410)">
<path d="M22.2703 0.268555H2.30142C1.03416 0.268555 -0.00268555 1.3054 -0.00268555 2.57266V22.5416C-0.00268555 23.8088 1.03416 24.8457 2.30142 24.8457H22.2703C23.5376 24.8457 24.5745 23.8088 24.5745 22.5416V2.57266C24.5745 1.3054 23.5376 0.268555 22.2703 0.268555ZM9.21374 20.2375H6.1416V9.48498H9.21374V20.2375ZM7.67767 7.94891C7.27028 7.94891 6.87957 7.78708 6.59151 7.49901C6.30344 7.21094 6.1416 6.82023 6.1416 6.41284C6.1416 6.00545 6.30344 5.61474 6.59151 5.32667C6.87957 5.0386 7.27028 4.87677 7.67767 4.87677C8.08506 4.87677 8.47577 5.0386 8.76384 5.32667C9.05191 5.61474 9.21374 6.00545 9.21374 6.41284C9.21374 6.82023 9.05191 7.21094 8.76384 7.49901C8.47577 7.78708 8.08506 7.94891 7.67767 7.94891ZM19.9662 20.2375H16.8941V14.0932C16.8941 13.6858 16.7323 13.2951 16.4442 13.007C16.1561 12.719 15.7654 12.5571 15.358 12.5571C14.9506 12.5571 14.5599 12.719 14.2719 13.007C13.9838 13.2951 13.822 13.6858 13.822 14.0932V20.2375H10.7498V9.48498H13.822V11.3912C14.4548 10.5218 15.4256 9.48498 16.5101 9.48498C18.421 9.48498 19.9662 11.2038 19.9662 13.3252V20.2375Z" fill="#180344"/>
</g>
<defs>
<clipPath id="clip0_179_4410">
<rect width="24.5771" height="24.5771" fill="white" transform="translate(-0.00292969 0.268402)"/>
</clipPath>
</defs>
</svg>
