<svg xmlns="http://www.w3.org/2000/svg" width="18" height="19" viewBox="0 0 18 19" fill="none">
  <path d="M13.6046 4.45825C14.1866 4.45825 14.7447 4.68944 15.1563 5.10095C15.5678 5.51246 15.7989 6.07059 15.7989 6.65255V13.6743C15.7989 14.2563 15.5678 14.8144 15.1563 15.2259C14.7447 15.6374 14.1866 15.8686 13.6046 15.8686H3.94973C3.36777 15.8686 2.80964 15.6374 2.39813 15.2259C1.98662 14.8144 1.75543 14.2563 1.75543 13.6743V6.65255C1.75543 6.07059 1.98662 5.51246 2.39813 5.10095C2.80964 4.68944 3.36777 4.45825 3.94973 4.45825H13.6046ZM14.9212 7.9349L9.00013 11.4194C8.94415 11.4523 8.88158 11.4724 8.81692 11.4781C8.75227 11.4839 8.68713 11.4752 8.62622 11.4528L8.55425 11.4194L2.63315 7.93666V13.6743C2.63315 14.0235 2.77186 14.3584 3.01877 14.6053C3.26568 14.8522 3.60055 14.9909 3.94973 14.9909H13.6046C13.9538 14.9909 14.2887 14.8522 14.5356 14.6053C14.7825 14.3584 14.9212 14.0235 14.9212 13.6743V7.9349ZM13.6046 5.33597H3.94973C3.60055 5.33597 3.26568 5.47468 3.01877 5.72159C2.77186 5.9685 2.63315 6.30337 2.63315 6.65255V6.91762L8.77719 10.5321L14.9212 6.91587V6.65255C14.9212 6.30337 14.7825 5.9685 14.5356 5.72159C14.2887 5.47468 13.9538 5.33597 13.6046 5.33597Z" fill="white"/>
</svg>