<svg width="375" height="615" viewBox="0 0 375 615" fill="none" xmlns="http://www.w3.org/2000/svg">
<path fill-rule="evenodd" clip-rule="evenodd" d="M0 11.6417L15.875 15.5222C31.75 19.4028 63.5 27.1639 95.25 27.1639C127 27.1639 158.75 19.4028 190.5 19.4028C222.25 19.4028 254 27.1639 285.75 25.2236C317.5 23.2833 349.25 11.6417 365.125 5.82083L381 0V69.85H365.125C349.25 69.85 317.5 69.85 285.75 69.85C254 69.85 222.25 69.85 190.5 69.85C158.75 69.85 127 69.85 95.25 69.85C63.5 69.85 31.75 69.85 15.875 69.85H0V11.6417Z" fill="#180344"/>
<rect y="40" width="381" height="575" fill="#180344"/>
</svg>
