<svg xmlns="http://www.w3.org/2000/svg" width="35" height="35" viewBox="0 0 35 35" fill="none">
  <path d="M4.71851 6.68506V28.3044" stroke="#180344" stroke-width="2.16188" stroke-linecap="round"/>
  <path d="M30.6741 13.1738V28.3146" stroke="#180344" stroke-width="2.16188" stroke-linecap="round" stroke-linejoin="round"/>
  <path d="M9.04443 2.35938H19.8593" stroke="#180344" stroke-width="2.16188" stroke-linecap="round" stroke-linejoin="round"/>
  <path d="M9.04443 32.6406H26.3481" stroke="#180344" stroke-width="2.16188" stroke-linecap="round"/>
  <path d="M30.6741 28.3149C30.6859 30.4754 28.5111 32.6409 26.3481 32.6409" stroke="#180344" stroke-width="2.16188" stroke-linecap="round" stroke-linejoin="round"/>
  <path d="M4.71851 28.3149C4.71851 30.4779 6.88147 32.6409 9.04443 32.6409" stroke="#180344" stroke-width="2.16188" stroke-linecap="round" stroke-linejoin="round"/>
  <path d="M4.71851 6.68213C4.71851 4.5223 6.88147 2.40751 9.04443 2.35934" stroke="#180344" stroke-width="2.16188" stroke-linecap="round" stroke-linejoin="round"/>
  <path d="M30.6623 13.1839L19.8593 2.35938" stroke="#180344" stroke-width="2.16188" stroke-linecap="round" stroke-linejoin="round"/>
  <path d="M19.8593 8.84814C19.8659 10.9993 22.0309 13.1741 24.1852 13.1741" stroke="#180344" stroke-width="2.16188" stroke-linecap="round" stroke-linejoin="round"/>
  <path d="M19.8593 8.84827V2.35938" stroke="#180344" stroke-width="2.16188" stroke-linecap="round" stroke-linejoin="round"/>
  <path d="M24.1852 13.1738H30.6741" stroke="#180344" stroke-width="2.16188" stroke-linecap="round" stroke-linejoin="round"/>
  <path d="M9.04443 28.3149H15.5333" stroke="#180344" stroke-width="2.16296" stroke-linecap="round" stroke-linejoin="round"/>
  <path d="M9.04443 23.9888H19.8593" stroke="#180344" stroke-width="2.16296" stroke-linecap="round" stroke-linejoin="round"/>
  <path d="M9.04443 19.6631H15.5333" stroke="#180344" stroke-width="2.16296" stroke-linecap="round" stroke-linejoin="round"/>
</svg>