<svg width="89" height="88" viewBox="0 0 89 88" fill="none" xmlns="http://www.w3.org/2000/svg">
<path d="M30.5046 3.09019C30.3844 3.40791 30.247 3.7428 30.1439 4.10345C29.5428 5.98057 29.268 8.20632 30.058 9.82067C30.1439 9.99585 30.1954 10.0405 30.2641 10.1762C31.1057 9.47719 32.4968 8.60475 34.5233 8.66658C36.2063 8.71638 37.5974 9.70045 38.4046 10.9215C39.2118 12.1426 39.5896 13.5938 39.6583 15.0433C39.727 16.491 39.5037 17.9457 38.8855 19.2166C38.2672 20.4874 37.1166 21.6553 35.5365 21.8785C32.9433 22.2564 31.0713 20.8309 30.1267 20.2126C29.9722 20.1268 29.9035 20.1096 29.8176 20.0581C29.7661 20.144 29.7489 20.144 29.663 20.35C29.5772 20.5218 29.5085 21.7583 29.8691 23.3727C30.0065 23.9566 30.1611 24.592 30.3672 25.2446C33.905 25.1588 37.3742 25.4335 39.8644 26.3953C41.1353 26.8762 42.0283 27.3055 42.6466 28.1985C43.2648 29.0916 43.1103 30.2766 42.8527 30.9464C42.3546 32.286 41.7364 33.0416 41.9253 34.759C42.0111 35.4116 42.2001 35.6177 42.6122 35.841C43.0244 36.0642 43.7285 36.1844 44.4842 36.0642C45.9955 35.8581 47.3866 34.8277 47.5412 33.7629C47.7644 32.2344 47.4381 32.2688 46.8714 31.5646C46.734 31.3757 46.5279 31.1525 46.3733 30.7231C46.2188 30.2766 46.2531 29.5553 46.5107 29.0916C47.0088 28.1642 47.627 27.9066 48.5888 27.3914C50.1001 26.567 51.7831 26.7388 53.6208 27.0307C54.9088 27.2368 56.2999 27.5631 57.7082 27.9238C57.3132 26.3609 56.9525 24.8153 56.7292 23.3727C56.4373 21.432 56.3171 19.6459 57.1929 18.0659C57.5021 17.5335 57.7425 17.1248 58.0516 16.7675C58.3436 16.4103 58.7042 16.017 59.4084 15.8676C60.1125 15.7165 60.851 16.0909 61.1601 16.3846C61.4864 16.6782 61.6238 16.917 61.7612 17.1248C62.036 17.5335 62.2593 17.8426 62.4654 17.98C62.6714 18.1346 62.826 18.2548 63.4614 18.1518C63.8908 18.1002 64.303 17.8083 64.6808 17.19C65.0758 16.5786 65.3506 15.6667 65.4021 14.7822C65.4365 13.8978 65.2647 13.0614 64.9556 12.5634C64.6636 12.067 64.406 11.8524 63.7362 11.8146C62.8432 11.763 62.4825 11.9314 62.2764 12.0636C62.0704 12.1941 61.9845 12.3212 61.8127 12.6149C61.7097 12.7609 61.6925 12.9738 61.143 13.3551C60.8682 13.5457 60.3014 13.7209 59.8377 13.6213C59.3569 13.5199 59.0993 13.2829 58.9275 13.1112C58.2577 12.4294 58.1719 11.9794 57.6395 10.8683C56.3514 8.18743 56.4888 5.29704 56.9525 3.08847L30.5046 3.09019ZM60.2327 3.09019C59.7862 4.957 59.4771 7.55199 60.4216 9.52871C60.4388 9.55104 60.4388 9.55791 60.456 9.58024C60.5075 9.54417 60.5419 9.50467 60.5934 9.47032C61.4006 8.95339 62.5169 8.64769 63.908 8.72841C65.5395 8.82115 66.8962 9.77945 67.6175 10.9851C68.3389 12.189 68.5621 13.5852 68.4762 14.9523C68.4076 16.3193 68.0297 17.6709 67.3084 18.8387C66.5871 19.9894 65.4193 21.0027 63.908 21.2087C62.6027 21.3977 61.4177 21.0542 60.6277 20.4874C60.3014 20.247 60.061 19.9894 59.8377 19.7318C59.666 20.2298 59.563 21.3805 59.7862 22.9261C60.0438 24.6092 60.5762 26.6701 61.1258 28.7653C61.1258 28.7825 61.1258 28.7996 61.143 28.7996C62.6371 29.1946 64.0969 29.5381 65.4021 29.7442C67.1539 30.019 68.5965 30.0018 69.2834 29.7442C69.6269 29.624 69.7471 29.5381 69.8845 29.4522C69.8845 29.4351 69.8845 29.4351 69.8673 29.4179C69.1976 28.4733 67.4458 26.5155 67.6519 23.5959C67.7721 21.93 68.9228 20.5733 70.2452 20.0237C70.9149 19.749 71.6191 19.6116 72.3232 19.5772C73.0445 19.5429 73.7658 19.5944 74.4871 19.7318C75.9126 19.9894 77.3208 20.5561 78.5059 21.3977C79.6909 22.2392 80.7041 23.407 80.9274 24.9698C81.2709 27.3398 80.0172 28.9886 79.3302 29.8129L79.3645 29.8472C80.3778 30.3281 82.662 30.0877 84.6198 29.4522C85.032 29.332 85.427 29.1775 85.8048 29.0401V3.09019H60.2327ZM72.8213 22.6685C72.2545 22.6685 71.7565 22.7544 71.4302 22.8746C70.9149 23.0979 70.7776 23.2009 70.7432 23.802C70.623 25.4507 71.516 26.3953 72.3919 27.6318C72.6152 27.9409 72.8384 28.2672 73.0102 28.6966C73.1991 29.1431 73.3021 29.7957 73.1132 30.414C72.701 31.6677 71.6534 32.1657 70.3482 32.6466C68.6995 33.2649 66.8791 33.1103 64.9041 32.8012C63.9595 32.6466 62.9806 32.4405 61.9845 32.2001C62.2077 33.1618 62.4138 34.1236 62.5512 35.051C62.8604 37.0431 62.9806 38.8979 62.2249 40.5466C61.6925 41.7316 61.5208 42.4014 60.5419 43.0369C60.061 43.346 59.1508 43.3975 58.6527 43.1743C58.1719 42.951 57.9829 42.7106 57.794 42.5216C57.0727 41.7832 56.9182 41.2508 55.1492 41.3538C54.5138 41.3882 54.3249 41.5599 54.0673 42.0751C53.8097 42.5732 53.6723 43.449 53.7581 44.3593C53.8612 45.2867 54.1703 46.2141 54.5653 46.798C54.9431 47.3991 55.2523 47.5365 55.4755 47.5365C56.6777 47.5536 57.3303 46.9697 58.4638 46.3858C59.0306 46.0767 59.9751 45.716 60.9712 46.111C61.9501 46.506 62.4654 47.3132 62.9634 48.3265C63.8049 50.061 64.1656 52.4997 64.2858 55.2132C64.4404 55.196 64.6121 55.1617 64.7667 55.1274C66.6902 54.801 68.4762 54.6465 70.1249 55.2476C70.7776 55.488 71.2756 55.7113 71.7393 56.0204C72.1858 56.3295 72.6839 56.8104 72.8384 57.5145C72.993 58.2358 72.7182 58.8713 72.4778 59.2491C72.2374 59.6441 71.9797 59.8845 71.7393 60.1422C70.7604 61.1211 69.9532 61.7222 70.1421 63.0789C70.2108 63.5598 70.52 64.0063 71.2584 64.4357C71.9797 64.8822 73.0617 65.2085 74.1437 65.2944C75.2256 65.3802 76.2904 65.2257 76.9774 64.9337C77.6472 64.6417 77.8361 64.4013 77.8876 64.0406C78.0765 62.7869 77.3724 62.0656 76.4965 60.8978C76.0671 60.3139 75.4489 59.5582 75.5519 58.3732C75.655 57.1882 76.5652 56.3295 77.6987 55.6769C80.2576 54.2343 83.2459 54.8354 85.5472 55.5739C85.6331 55.6082 85.7189 55.6254 85.8048 55.6597V32.3203C85.7189 32.3547 85.6502 32.3718 85.5644 32.4062C83.3146 33.1275 80.498 33.8316 78.0078 32.6123C77.5098 32.3718 77.0976 32.1314 76.7198 31.8051C76.3419 31.4616 75.9813 30.9807 75.8782 30.3625C75.7924 29.7442 75.9985 29.1946 76.1874 28.8512C76.3934 28.5077 76.5995 28.2672 76.7713 28.044C77.5269 27.1853 78.0765 26.7903 77.8704 25.4164C77.8189 25.0042 77.4582 24.4374 76.7198 23.9051C75.9813 23.3898 74.9337 22.9605 73.9204 22.7716C73.5426 22.7029 73.1647 22.6685 72.8213 22.6685ZM31.4148 28.3359H31.3117L31.535 29.0401C32.1704 31.101 32.8231 33.2134 33.1837 35.1712C33.5272 37.129 33.6818 38.9666 32.8402 40.6153C32.5483 41.1993 32.2735 41.6458 31.93 42.0579C31.5865 42.453 31.0541 42.8995 30.2813 42.9338C29.5257 42.9682 28.9589 42.556 28.6498 42.2469C28.3578 41.9549 28.1689 41.6973 27.9972 41.4397C27.6193 40.9245 27.293 40.4779 26.9324 40.2203C26.5889 39.9456 26.2798 39.791 25.5241 39.8769C24.9917 39.9456 24.5795 40.2375 24.1502 40.9416C23.738 41.6629 23.4461 42.7277 23.3774 43.8097C23.3258 44.8917 23.5148 45.9736 23.8411 46.6777C24.1674 47.3819 24.4765 47.6223 24.8887 47.6738C26.2626 47.8799 27.0354 47.1758 28.2204 46.3514C28.8043 45.9393 29.5257 45.3725 30.6935 45.4584C31.8613 45.5443 32.7372 46.4545 33.3383 47.5365C34.1798 49.0821 33.9737 50.7823 33.6646 52.6715C33.3383 54.5434 32.7715 56.6387 32.2048 58.7339C32.1704 58.8541 32.1361 58.9572 32.1018 59.0774C35.1072 58.9056 37.9237 58.3904 39.2805 57.7206C39.2977 57.7206 39.2976 57.7206 39.2976 57.7035C38.7996 56.9306 38.5076 55.8487 38.5763 54.4919C38.645 52.8432 39.5724 51.4865 40.7231 50.6965C41.8737 49.9065 43.2305 49.5802 44.5701 49.5286C45.9096 49.4771 47.232 49.7004 48.3655 50.3186C49.5162 50.9369 50.5466 52.1219 50.581 53.6332C50.6153 55.4021 49.9283 56.673 49.5677 57.2569C49.7394 57.3943 49.9799 57.5661 50.3577 57.7721C50.684 57.9611 51.8347 58.0984 53.3803 57.8408C54.926 57.6004 56.8495 57.0852 58.8245 56.5528C59.6145 56.3467 60.4045 56.1234 61.1945 55.9174C61.0743 53.118 60.6449 50.6278 60.1812 49.6832C60.0438 49.3741 59.9408 49.2539 59.8549 49.1508C59.2023 49.4943 57.6738 50.6621 55.424 50.6278C53.8955 50.6106 52.7105 49.6145 51.972 48.4982C51.2507 47.3819 50.8214 46.0423 50.684 44.6856C50.5466 43.3117 50.6668 41.9034 51.3194 40.6497C51.972 39.396 53.3288 38.3655 54.9775 38.2625C56.9697 38.1595 58.3608 38.9838 59.2023 39.6536C59.271 39.499 59.3397 39.4475 59.4256 39.2586C59.6832 38.6747 59.769 37.2664 59.4943 35.5147C59.3053 34.261 58.979 32.8183 58.6012 31.3414C56.609 30.8262 54.7027 30.3281 53.1399 30.0877C51.5427 29.8301 50.3405 29.9675 50.0657 30.1049C49.9112 30.1907 49.8768 30.2423 49.7566 30.3109C50.2547 31.101 50.8557 32.4405 50.5981 34.2094C50.1688 37.129 47.4553 38.7777 44.9135 39.1384C43.6427 39.3101 42.3031 39.1899 41.1353 38.5545C39.9674 37.919 39.0229 36.6481 38.8511 35.1025C38.5592 32.4405 39.7098 30.5342 39.9503 29.8644C39.83 29.7786 39.5209 29.5725 38.7653 29.2805C37.2368 28.6966 34.4031 28.3531 31.4148 28.3359ZM28.1002 28.4733C24.8715 28.7309 21.8832 29.4179 20.7154 30.0533C20.4063 30.2251 20.2689 30.3453 20.1658 30.4483C20.6124 31.1181 22.0035 32.7325 21.7974 35.1197C21.6771 36.6138 20.578 37.7645 19.393 38.2797C18.208 38.8121 16.8873 38.9151 15.5666 38.7605C14.2477 38.5888 12.9219 38.1423 11.7987 37.3523C10.6755 36.5451 9.74123 35.2914 9.54716 33.7286C9.37542 32.3547 9.68971 31.1696 10.2273 30.3453C10.4265 30.0362 10.6446 29.7957 10.8575 29.5896C10.8318 29.5725 10.8301 29.5725 10.8026 29.5553C9.22429 28.7481 6.94874 28.9199 5.02869 29.4522C4.68349 29.5381 4.36405 29.6412 4.05664 29.7442V58.3045C4.36062 58.4076 4.67834 58.5106 5.0201 58.5965C6.93328 59.1289 9.20884 59.3178 10.8163 58.5106C11.134 58.3561 11.2577 58.253 11.4277 58.1328C10.7957 57.3428 9.65708 55.7284 9.91469 53.3241C10.0881 51.7269 11.086 50.456 12.2847 49.7347C13.4834 49.0134 14.8711 48.7386 16.2399 48.7386C17.6069 48.7386 18.9637 49.0306 20.1487 49.7004C21.3165 50.353 22.3641 51.5036 22.5702 53.015C22.8622 55.2476 21.6771 56.7932 21.0417 57.5489C21.1448 57.6176 21.1619 57.6519 21.3508 57.755C22.45 58.3732 25.5756 58.9743 28.8902 59.0945C29.0104 58.6995 29.1135 58.3217 29.2165 57.9267C29.7833 55.8315 30.3328 53.7878 30.6076 52.1563C30.8824 50.5076 30.7622 49.271 30.6248 49.0306C30.4874 48.773 30.4359 48.7215 30.3844 48.6528C30.2985 48.7043 30.1783 48.7558 29.9894 48.8932C29.0104 49.563 27.1213 51.1258 24.4422 50.7308C22.8278 50.5076 21.66 49.2882 21.0417 47.983C20.4234 46.6606 20.2174 45.1493 20.3032 43.6551C20.3719 42.161 20.7326 40.6497 21.4882 39.3788C22.2439 38.0908 23.5319 36.9916 25.1978 36.8027C26.6576 36.6481 27.9285 37.0947 28.7872 37.7473C29.4054 38.1938 29.8004 38.6919 30.1267 39.1212C30.35 38.5888 30.4359 37.3523 30.1267 35.7208C29.8348 34.0377 29.2165 32.0112 28.5811 29.9675C28.4265 29.4694 28.2548 28.9714 28.1002 28.4733ZM16.2244 51.8299C15.3211 51.8299 14.4366 52.036 13.8733 52.3795C13.31 52.723 13.0541 53.0493 12.9888 53.6504C12.8119 55.3163 13.3941 55.6426 14.1378 56.5871C14.325 56.8276 14.5431 57.1024 14.7114 57.5489C14.8814 57.9954 14.9089 58.6995 14.665 59.2491C14.1807 60.3311 13.3735 60.6917 12.1971 61.2928C9.48018 62.6324 6.47989 62.203 4.19747 61.5848C4.14938 61.5676 4.10473 61.5504 4.05664 61.5332V84.8383H27.4648C27.0183 82.829 26.9324 80.3044 28.2376 78.0031C28.8043 77.007 29.062 76.4403 29.8004 75.9079C30.1611 75.6331 30.8652 75.4098 31.4148 75.5472C31.9644 75.6674 32.2391 75.925 32.4109 76.0796C32.7544 76.3887 32.8574 76.509 33.0463 76.5948C33.2352 76.6807 33.4928 76.7837 34.1798 76.6979C34.4546 76.6635 34.8839 76.4059 35.2961 75.6674C35.7255 74.9461 36.0518 73.8642 36.1376 72.7994C36.2235 71.7518 36.0518 70.7213 35.7598 70.1202C35.4679 69.5191 35.2618 69.3302 34.6607 69.2959C33.8707 69.2444 33.5272 69.4333 33.1837 69.7081C32.8402 69.9828 32.5483 70.4294 32.2735 70.9102C32.1189 71.1335 31.9987 71.3739 31.7411 71.6831C31.6209 71.8376 31.4491 72.0266 31.1228 72.1983C30.8137 72.3872 30.2641 72.4902 29.8176 72.37C28.9074 72.1468 28.6841 71.5972 28.4609 71.2022C28.2376 70.79 28.0487 70.3435 27.8083 69.7252C27.19 68.0594 27.3617 66.2046 27.7052 64.1952C27.8254 63.5426 27.9628 62.8556 28.1174 62.1687C24.8543 62.0485 21.8661 61.5848 19.8395 60.4685C18.8091 59.8845 17.9985 59.3865 17.7065 58.253C17.5623 57.6863 17.6893 57.068 17.8783 56.6902C18.0637 56.2952 18.2767 56.0547 18.4484 55.8315C19.1869 54.9556 19.6678 54.698 19.4961 53.41C19.4445 53.0493 19.2384 52.723 18.6374 52.3967C17.8267 52.036 16.9663 51.8299 16.2244 51.8299ZM81.2709 57.9439C80.4637 57.9439 79.7424 58.0813 79.21 58.3732C78.918 58.545 78.8322 58.6308 78.7463 58.6824C78.7978 58.7682 78.8322 58.8713 78.9696 59.0602C79.6737 59.9876 81.3396 61.8252 80.9446 64.4872C80.7213 66.0844 79.4848 67.235 78.1796 67.7846C76.8571 68.3341 75.3802 68.4887 73.886 68.3685C72.4091 68.2483 70.9321 67.8533 69.6612 67.0976C68.4075 66.342 67.2912 65.1054 67.0852 63.4911C66.7245 60.8806 68.3389 59.1632 69.2663 58.2358C69.1804 58.2015 69.1804 58.2015 69.0602 58.15C68.3904 57.9095 66.9821 57.8924 65.2819 58.1843C64.9728 58.2358 64.6464 58.2874 64.3201 58.3561C64.2514 62.0828 63.8049 65.8439 62.7917 68.4372C62.2936 69.7252 61.8643 70.6526 60.8338 71.2022C60.3014 71.477 59.666 71.5457 59.1679 71.4598C58.6871 71.3568 58.3264 71.185 58.0001 71.0133C56.7121 70.3263 55.8534 69.5535 54.0501 69.6222C53.4147 69.6394 53.3631 69.7424 53.1571 70.2233C52.9681 70.7042 52.8823 71.6316 53.0712 72.5933C53.2429 73.555 53.6551 74.5511 54.136 75.2037C54.5997 75.8563 55.029 76.0453 55.2179 76.0624C56.3686 76.0796 56.4373 75.6846 57.296 74.9633C57.5021 74.7744 57.7769 74.534 58.2577 74.3794C58.7386 74.2248 59.4256 74.2935 59.8893 74.534C60.8338 75.032 61.1773 75.7018 61.7784 76.7666C63.2038 79.2911 62.8432 82.2451 62.328 84.5464C62.3108 84.6494 62.2764 84.7353 62.2593 84.8383H85.8048V58.94C85.427 58.8026 85.032 58.648 84.6198 58.5278C83.5207 58.1671 82.3185 57.9611 81.2709 57.9439Z" fill="black"/>
</svg>
