<svg xmlns="http://www.w3.org/2000/svg" width="33" height="32" viewBox="0 0 33 32" fill="none">
  <g clip-path="url(#clip0_138_2471)">
    <path d="M7.87851 6.61242L7.92101 2.00492L10.036 1.35742L12.4735 5.53992L7.87851 6.61242Z" fill="#C62828"/>
    <path opacity="0.59" d="M9.22595 5.12042C9.22595 5.12042 8.57595 2.14792 9.31095 1.85292C10.6185 1.33042 11.6385 4.76542 11.6385 4.76542L9.22595 5.12042Z" fill="#37474F"/>
    <path d="M5.18351 8.20249C5.16101 7.79499 4.61101 4.54499 5.44601 2.73249C5.82851 1.90499 7.39851 1.35499 8.80351 1.04249C9.15101 0.964991 10.0485 0.914991 10.606 1.55499C11.1085 2.13249 11.851 3.39749 12.5835 5.30499L12.056 6.43999C12.056 6.43999 11.3285 4.51499 10.601 2.92499C9.99851 1.60749 9.23351 2.04499 9.15601 2.35249C9.01601 2.91749 9.73101 5.97999 9.73101 5.97999C8.69101 6.42249 5.18351 8.20249 5.18351 8.20249Z" fill="#F44336"/>
    <path d="M10.626 4.3432L11.0635 2.2182L12.786 1.2207L14.8585 1.2257L16.5835 2.6232L17.061 5.3482L14.9785 4.6457L14.696 2.6932L12.786 2.6457L12.531 4.1982L10.626 4.3432Z" fill="#455A64"/>
    <path d="M8.80095 1.04586C7.39595 1.35586 5.98345 1.80336 5.44345 2.73586C5.13345 3.27086 4.95345 4.67336 4.98845 5.97586C5.26095 5.54586 6.37345 4.80336 7.20345 4.44336C8.03095 4.08336 8.12595 3.72586 8.13845 3.56836C8.20095 2.85336 8.14095 2.26336 8.35095 1.75836C8.61595 1.11836 8.99345 1.03836 9.21345 1.00586C9.04595 1.00586 8.89845 1.02336 8.80095 1.04586ZM9.93345 1.11586C9.79845 1.06836 9.66345 1.03836 9.53345 1.02336C9.66845 1.05836 9.80095 1.10336 9.93345 1.11586Z" fill="#FF7555"/>
    <path d="M22.5335 27.3101C26.2535 26.3226 27.3635 22.1201 28.4185 21.7676" stroke="#784D30" stroke-width="9.816" stroke-miterlimit="10"/>
    <path d="M26.156 18.7243C26.4285 20.4968 26.9635 20.6293 27.896 20.5818C29.3085 20.5118 29.4635 20.1868 29.7785 17.7668C30.1685 14.7618 29.041 10.5743 28.0685 7.70425C27.5535 6.18425 27.606 5.14175 26.4585 3.98175C25.8285 3.34425 23.376 2.40675 22.6635 3.62675C22.1735 4.46675 22.4185 5.31925 22.886 5.99425C24.2435 7.95925 25.4935 14.4368 26.156 18.7243Z" fill="#C62828"/>
    <path opacity="0.59" d="M23.301 6.72817C23.561 7.26067 23.8285 7.95067 24.046 8.72817C26.261 8.66067 28.661 9.72317 28.661 9.65817C28.661 9.60317 28.4735 8.16067 27.8635 6.73067C27.5985 6.11067 26.791 4.41067 25.791 4.57567C24.5335 4.78567 23.301 6.72817 23.301 6.72817Z" fill="#37474F"/>
    <path d="M21.5235 9.79679C22.176 8.40179 24.5885 4.85179 25.976 4.73679C26.6635 4.67929 27.436 6.10179 27.7185 6.87929C28.511 9.06179 29.3735 12.4868 29.626 16.0618C29.7835 18.2918 29.376 20.0668 28.536 20.8043C31.756 20.2018 30.4985 13.1743 30.226 11.7193C29.3085 6.84679 28.106 5.00929 27.1835 4.02679C26.4785 3.27679 23.4085 1.68929 21.7885 1.76429C20.541 1.82179 17.811 4.15429 17.066 5.44679C16.846 5.82679 21.5235 9.79679 21.5235 9.79679Z" fill="#F44336"/>
    <path d="M17.201 30.9316C21.426 30.5966 24.0985 28.2216 24.3785 25.9691C25.3435 18.1841 23.436 6.92664 15.8385 4.74414C14.991 4.50164 13.501 4.18164 12.206 4.18164C10.6985 4.18164 8.37352 4.49914 6.70352 5.64414C3.65852 7.73414 2.84602 10.7091 2.64602 12.1841C1.90852 17.5916 11.886 31.3541 17.201 30.9316Z" fill="#FF7555"/>
    <path d="M24.3786 25.9703C24.8811 21.9203 24.6061 16.9328 23.1561 12.7678C22.4011 11.7928 21.5611 11.3353 20.8661 11.5603C20.0311 11.8303 19.2986 12.9428 19.5636 14.0628C19.5636 14.0628 21.5861 22.1778 20.2111 27.3103C19.3011 30.7078 16.9036 30.9403 16.9036 30.9403C17.0036 30.9403 17.1036 30.9403 17.2011 30.9328C21.4286 30.5978 24.0986 28.2228 24.3786 25.9703Z" fill="#C62828"/>
    <path d="M4.69097 30.0943C5.96597 30.4968 9.31847 30.9993 15.256 30.9993C20.5885 30.9993 20.551 29.1018 20.991 26.8743C21.896 22.2793 20.656 7.30927 11.3685 6.98677C3.24597 6.70177 2.43347 11.4718 1.82097 16.6518C1.18097 22.0693 1.33097 24.0968 1.64097 26.3043C2.04347 29.1893 3.81347 29.8168 4.69097 30.0943Z" fill="#F44336"/>
    <path d="M22.5485 14.9522C22.3335 13.8222 22.0285 12.5797 21.526 11.3672L20.921 11.3947C21.3735 12.4222 21.7485 13.6297 22.0185 15.0522C22.881 19.6097 22.981 22.6647 22.936 24.3222C22.9085 25.3172 23.456 25.3222 23.4835 24.2597C23.526 22.5572 23.411 19.5122 22.5485 14.9522Z" fill="#37474F"/>
    <path d="M23.1685 23.8026C23.0217 23.8535 22.8977 23.9547 22.8185 24.0884C22.7393 24.222 22.7101 24.3794 22.736 24.5326L23.061 26.4176C23.0733 26.5041 23.106 26.5864 23.1566 26.6576C23.2071 26.7288 23.2739 26.7869 23.3515 26.827C23.4291 26.8672 23.5151 26.8881 23.6024 26.8883C23.6898 26.8884 23.7759 26.8676 23.8535 26.8276L24.7585 26.3651C25.0535 26.2151 25.1485 25.8376 24.961 25.5651L23.9185 24.0501C23.8375 23.9329 23.7204 23.8452 23.585 23.8006C23.4497 23.7559 23.3034 23.7566 23.1685 23.8026Z" fill="#E2A610"/>
    <path d="M23.5935 26.4581C23.5485 26.3756 23.3085 25.0905 23.236 24.5055C23.156 23.848 23.4385 23.8106 23.481 23.7756C23.3783 23.7594 23.2732 23.7679 23.1744 23.8004C23.0756 23.8329 22.9859 23.8885 22.9129 23.9625C22.8398 24.0365 22.7855 24.1269 22.7543 24.2261C22.7231 24.3253 22.716 24.4305 22.7335 24.5331L23.0585 26.4181C23.096 26.6756 23.2985 26.8556 23.531 26.8856C23.636 26.8981 23.746 26.8831 23.851 26.8281L24.061 26.7206C24.051 26.7181 23.741 26.7281 23.5935 26.4581Z" fill="#FFCA28"/>
    <path d="M30.0235 23.0326L27.6885 23.2401C27.4735 23.2601 27.281 23.1001 27.2635 22.8826L27.086 20.9001C27.066 20.6851 27.226 20.4926 27.4435 20.4751L29.7785 20.2676C29.9935 20.2476 30.186 20.4076 30.2035 20.6251L30.381 22.6076C30.3985 22.8226 30.2385 23.0126 30.0235 23.0326Z" fill="#546E7A"/>
    <path d="M29.3885 23.1075L27.1785 23.305C26.9635 23.325 26.771 23.165 26.7535 22.9475L26.5735 20.925C26.5535 20.71 26.7135 20.5175 26.931 20.5L29.141 20.3025C29.356 20.2825 29.5485 20.4425 29.566 20.66L29.746 22.6825C29.7635 22.8975 29.6035 23.0875 29.3885 23.1075Z" fill="#37474F"/>
    <path d="M27.856 25.3906L27.1785 21.8206C27.166 21.7606 27.2085 21.7031 27.271 21.6981L29.0535 21.5181C29.1035 21.5131 29.151 21.5456 29.1635 21.5956L30.0435 24.8906C30.101 25.1056 29.9685 25.3281 29.751 25.3781L28.331 25.7031C28.1135 25.7506 27.896 25.6106 27.856 25.3906Z" fill="#A06841"/>
    <path opacity="0.65" d="M12.4035 14.702L8.54597 14.587C8.20847 14.587 7.93347 14.312 7.93347 13.9745L7.98597 11.9895C7.98597 11.657 8.25097 11.3845 8.58347 11.377L12.3985 11.4795C12.4793 11.4772 12.5598 11.491 12.6353 11.52C12.7107 11.549 12.7797 11.5926 12.8383 11.6484C12.8968 11.7042 12.9438 11.771 12.9764 11.8449C13.0091 11.9189 13.0268 11.9986 13.0285 12.0795L13.021 14.077C13.0235 14.4195 12.7485 14.702 12.4035 14.702Z" fill="#FFF59D"/>
    <path d="M21.7886 1.763C20.8436 1.793 19.0161 3.168 17.8936 4.3855C18.4736 4.338 19.8461 4.9805 20.9861 5.8605C21.2136 6.0355 21.7736 6.003 22.1386 5.6105C22.4711 5.253 22.7836 4.978 23.1186 4.623C25.0836 2.5405 26.6286 3.573 26.6286 3.573C25.0036 2.5155 23.0236 1.7255 21.7886 1.763Z" fill="#FF7555"/>
    <path d="M21.6035 11.5583C20.371 8.47826 17.8835 5.51576 12.4485 5.02576C8.67353 4.68576 6.13103 6.43826 5.09603 7.07326C4.86603 7.21326 4.60853 7.38826 4.43353 7.62826C4.21103 7.93326 4.18103 8.18326 4.18103 8.18326C4.18103 8.18326 7.45603 5.12576 12.3985 5.56326C15.2235 5.81326 18.9335 6.75576 20.976 11.5308C21.1485 11.4883 21.381 11.5133 21.6035 11.5583Z" fill="#546E7A"/>
    <path d="M17.3735 28.5622C17.3735 28.5622 13.3785 28.8397 8.88596 28.5947C6.51846 28.4647 4.78346 28.1247 4.43096 27.6672C3.99596 27.1022 3.48096 26.5547 3.48096 23.6497C3.48096 21.6922 4.20346 20.1147 5.60346 20.0797C6.67346 20.0522 17.906 19.9297 17.0585 19.9297C16.211 19.9297 15.446 21.7872 15.5235 23.7897C15.7135 28.6972 17.3735 28.5622 17.3735 28.5622Z" fill="#FF7555"/>
    <path d="M13.4535 23.6503C13.541 23.6253 14.336 23.6953 14.971 23.2528C15.211 23.0853 15.401 22.9453 15.5535 22.7853C15.701 21.2853 16.291 20.0628 16.951 19.9428C16.9735 19.9378 16.996 19.9328 17.016 19.9303C16.036 19.9503 8.02349 19.6553 5.52099 19.6928C4.36099 19.7103 3.46599 21.0753 3.54599 22.6803C3.71349 22.9778 3.98349 23.2978 4.39599 23.3603C5.20599 23.4828 13.366 23.6778 13.4535 23.6503Z" fill="#FF7555"/>
    <path opacity="0.45" d="M13.4535 23.6503C13.541 23.6253 14.336 23.6953 14.971 23.2528C15.211 23.0853 15.401 22.9453 15.5535 22.7853C15.701 21.2853 16.291 20.0628 16.951 19.9428C16.9735 19.9378 16.996 19.9328 17.016 19.9303C16.036 19.9503 8.02349 19.6553 5.52099 19.6928C4.36099 19.7103 3.46599 21.0753 3.54599 22.6803C3.71349 22.9778 3.98349 23.2978 4.39599 23.3603C5.20599 23.4828 13.366 23.6778 13.4535 23.6503Z" fill="#FFF59D"/>
    <path d="M18.641 22.4247C18.556 21.1197 18.2485 20.4997 17.9685 20.2047C17.711 19.9297 17.3085 19.9072 16.736 19.9347C16.381 19.9522 15.7335 20.2922 15.461 22.2997V22.2972C15.246 22.7847 14.6835 23.2697 13.751 23.2697L4.81347 22.9797C3.91847 22.9222 3.59097 22.0672 3.54847 21.9897C3.54847 21.9897 3.41847 22.5922 3.54097 22.9747C3.69597 23.4547 4.26597 23.7397 4.81347 23.7397L13.751 24.0297C14.4635 24.0297 15.006 23.7472 15.356 23.4847C15.341 23.7947 15.3335 24.1322 15.3335 24.4972C15.3335 28.3372 16.441 28.6272 17.1485 28.5947C17.856 28.5597 18.5485 28.2897 18.661 27.6622C18.821 26.7847 18.8035 24.9397 18.641 22.4247Z" fill="#C62828"/>
  </g>
  <defs>
    <clipPath id="clip0_138_2471">
      <rect width="32" height="32" fill="white" transform="translate(0.0360107)"/>
    </clipPath>
  </defs>
</svg>