<svg width="246" height="266" viewBox="0 0 246 266" fill="none" xmlns="http://www.w3.org/2000/svg">
<path d="M78.6386 185.128C79.5631 177.379 81.6368 168.492 84.7955 158.713C88.0961 148.638 92 138.829 96.4801 129.354C101.143 119.408 106.349 109.799 112.068 100.582C117.427 91.8431 123.379 83.5881 129.871 75.8912C135.823 68.8958 141.472 63.6257 146.589 60.2259C151.52 56.942 155.77 55.5429 159.217 56.0504C162.665 56.5578 165.124 58.95 166.543 63.1908C168.007 67.5402 168.283 73.7092 167.358 81.4586C166.434 89.2079 164.36 98.1316 161.201 107.874C157.901 117.95 153.995 127.759 149.51 137.233C144.856 147.183 139.656 156.795 133.941 166.012C128.581 174.749 122.629 183.004 116.138 190.703C110.149 197.698 104.518 202.969 99.4076 206.368C94.4706 209.652 90.2205 211.051 86.7793 210.544C83.3381 210.036 80.8728 207.644 79.4539 203.403C77.9837 199.054 77.7141 192.885 78.6386 185.136V185.128ZM78.1442 185.708C74.2921 217.764 91.2926 220.287 116.061 191.334C140.83 162.381 164.02 112.942 167.846 80.8859C171.673 48.8302 154.704 46.3075 129.967 75.2606C105.231 104.214 82.0091 153.653 78.1763 185.708H78.1442Z" stroke="#180344" stroke-width="0.134619"/>
<path d="M74.3499 184.251C76.0705 175.747 79.0237 166.128 83.1326 155.74C87.3737 145.093 92.2092 134.762 97.61 124.808C103.149 114.513 109.226 104.6 115.811 95.1225C121.866 86.291 128.52 78.0044 135.713 70.3377C142.281 63.4583 148.316 58.4492 153.651 55.4553C158.787 52.5556 163.089 51.6495 166.382 52.7513C169.676 53.8532 171.827 56.9123 172.758 61.8418C173.721 66.9162 173.335 73.8463 171.615 82.3423C169.894 90.8383 166.941 100.465 162.832 110.853C158.591 121.501 153.753 131.833 148.348 141.785C142.812 152.08 136.736 161.993 130.154 171.47C124.084 180.302 117.417 188.588 110.213 196.255C103.645 203.135 97.61 208.144 92.2813 211.138C87.1452 214.037 82.8437 214.943 79.5502 213.842C76.2567 212.74 74.1059 209.681 73.175 204.751C72.212 199.677 72.5908 192.747 74.3178 184.251H74.3499ZM73.7785 184.816C66.6586 219.967 82.9079 225.411 110.071 196.951C137.235 168.491 165.034 116.935 172.154 81.7769C179.274 46.6186 163.025 41.1817 135.855 69.6418C108.685 98.1019 80.8984 149.658 73.7785 184.816Z" stroke="#180344" stroke-width="0.134619"/>
<path d="M70.2667 182.598C73.3264 172.088 77.1931 161.901 81.8229 152.151C87.0483 141.013 92.8604 130.238 99.2279 119.885C105.65 109.336 112.61 99.2187 120.074 89.5839C126.838 80.7651 134.203 72.5582 142.101 65.0383C149.221 58.3764 155.622 53.7297 161.124 51.207C166.447 48.7713 170.71 48.4233 173.804 50.1631C176.899 51.9029 178.658 55.6435 179.043 61.2833C179.441 67.1261 178.337 74.7594 175.762 83.9731C172.705 94.4834 168.838 104.671 164.206 114.419C159.006 125.552 153.217 136.322 146.872 146.671C140.448 157.218 133.487 167.336 126.025 176.972C119.262 185.791 111.897 193.998 103.998 201.518C96.8781 208.18 90.4772 212.826 84.9688 215.349C79.6529 217.785 75.39 218.133 72.2955 216.393C69.201 214.653 67.4419 210.913 67.0566 205.273C66.6586 199.43 67.7629 191.797 70.3373 182.583L70.2667 182.598ZM69.7531 183.127C59.1021 221.235 74.3435 229.804 103.78 202.279C133.216 174.754 165.663 121.553 176.314 83.4511C186.965 45.3497 171.724 36.774 142.288 64.2989C112.851 91.8239 80.327 145.04 69.6953 183.141L69.7531 183.127Z" stroke="#180344" stroke-width="0.134619"/>
<path d="M66.4853 180.126C70.5323 168.983 75.374 158.228 80.9626 147.969C93.4099 124.908 108.103 103.492 124.767 84.1189C132.193 75.4134 140.227 67.3966 148.791 60.146C156.425 53.8248 163.147 49.6203 168.771 47.663C174.208 45.771 178.401 46.0392 181.219 48.4604C184.038 50.8816 185.36 55.3254 185.135 61.6756C184.911 68.2506 183.03 76.5943 179.55 86.4676C175.503 97.6115 170.661 108.366 165.073 118.625C158.875 130.152 152.095 141.266 144.766 151.913C137.458 162.6 129.613 172.804 121.268 182.475C113.84 191.181 105.804 199.198 97.2376 206.448C89.6105 212.769 82.8887 216.974 77.2582 218.931C71.8268 220.823 67.628 220.555 64.816 218.134C62.004 215.712 60.6751 211.269 60.8933 204.918C61.1245 198.344 63.0056 190 66.4853 180.126V180.126ZM65.8433 180.641C51.4493 221.49 65.3682 233.408 96.9359 207.26C128.504 181.112 165.76 126.795 180.153 85.953C194.547 45.1113 180.629 33.1865 149.061 59.3341C117.493 85.4818 80.2372 139.792 65.8433 180.641V180.641Z" stroke="#180344" stroke-width="0.134619"/>
<path d="M63.0311 176.777C68.0956 165.087 73.942 153.85 80.5196 143.163C87.7124 131.35 95.4865 120.002 103.805 109.172C111.977 98.4629 120.691 88.2971 129.903 78.7257C139.007 69.3018 147.725 61.5743 155.821 55.7025C163.917 49.8307 170.902 46.1844 176.584 44.8723C182.073 43.6037 186.118 44.546 188.609 47.6777C191.1 50.8093 191.915 55.9779 191.029 63.0241C190.105 70.324 187.395 79.3346 182.959 89.8459C177.899 101.539 172.053 112.777 165.471 123.46C158.282 135.275 150.51 146.623 142.191 157.451C134.02 168.161 125.306 178.326 116.093 187.898C106.99 197.322 98.2712 205.049 90.1754 210.921C82.0796 216.793 75.0946 220.439 69.4127 221.751C63.9235 223.02 59.8789 222.077 57.3879 218.946C54.8969 215.814 54.0815 210.645 54.9675 203.599C55.8856 196.299 58.6013 187.289 63.0311 176.777V176.777ZM62.3891 177.263C44.0597 220.591 56.3478 236.032 89.8287 211.755C123.31 187.477 165.297 132.659 183.627 89.3312C201.956 46.0031 189.668 30.5625 156.187 54.8398C122.706 79.1172 80.6993 133.935 62.3699 177.263H62.3891Z" stroke="#180344" stroke-width="0.134619"/>
<path d="M60.0651 172.522C66.1645 160.373 73.0416 148.744 80.6416 137.726C88.8213 125.752 97.5855 114.303 106.894 103.43C115.896 92.8246 125.444 82.8276 135.489 73.4915C145.344 64.4084 154.653 57.1157 163.147 51.8166C171.64 46.5175 178.837 43.5599 184.5 42.9654C189.97 42.4 193.809 44.0818 195.902 47.9601C197.995 51.8384 198.239 57.7247 196.634 65.445C194.965 73.419 191.369 83.0749 185.951 94.0718C179.849 106.219 172.972 117.848 165.374 128.868C157.191 140.838 148.427 152.287 139.123 163.163C130.114 173.772 120.557 183.769 110.502 193.102C100.653 202.185 91.344 209.478 82.8437 214.777C74.3435 220.076 67.1658 223.048 61.4968 223.643C56.0269 224.208 52.1877 222.526 50.0947 218.648C48.0017 214.77 47.7514 208.884 49.3628 201.163C51.032 193.189 54.6273 183.533 60.0459 172.536L60.0651 172.522ZM59.3461 172.971C36.9527 218.474 47.2249 237.561 82.4007 215.662C117.577 193.762 164.225 139.132 186.644 93.6369C209.063 48.1413 198.74 29.0326 163.596 50.9322C128.452 72.8319 81.7716 127.461 59.3461 172.957V172.971Z" stroke="#180344" stroke-width="0.134619"/>
<path d="M57.5933 167.303C64.7363 154.813 72.6551 142.912 81.29 131.688C90.4437 119.684 100.185 108.268 110.469 97.4938C120.273 87.1401 130.629 77.4735 141.479 68.548C152.033 59.936 161.856 53.2451 170.69 48.6564C179.524 44.0677 186.824 41.8495 192.403 42.0669C197.79 42.2844 201.34 44.7491 202.971 49.4031C204.601 54.057 204.216 60.6465 201.828 69.012C199.362 77.7109 194.843 87.8597 188.403 99.2916C181.262 111.781 173.345 123.682 164.713 134.907C155.563 146.912 145.824 158.328 135.54 169.101C125.735 179.456 115.377 189.123 104.524 198.047C93.9762 206.659 84.147 213.349 75.3193 217.938C66.4916 222.527 59.1855 224.745 53.6064 224.528C48.22 224.31 44.6632 221.845 43.0389 217.192C41.4146 212.538 41.7934 205.948 44.1817 197.583C46.647 188.92 51.1668 178.735 57.6062 167.303H57.5933ZM56.8807 167.68C30.25 214.944 38.2623 237.866 74.7928 218.873C111.323 199.881 162.498 146.179 189.11 98.9146C215.721 51.6503 207.728 28.7285 171.197 47.7213C134.667 66.714 83.4985 120.416 56.855 167.68H56.8807Z" stroke="#180344" stroke-width="0.134619"/>
<path d="M55.7507 161.111C63.9401 148.4 72.9074 136.351 82.5868 125.054C92.6816 113.168 103.369 101.943 114.598 91.4326C125.143 81.4749 136.245 72.2931 147.835 63.9439C159.012 55.9698 169.284 50.0328 178.362 46.2777C187.44 42.5227 194.785 41.2033 200.191 42.2907C205.41 43.3563 208.607 46.6402 209.699 52.0988C210.79 57.5574 209.699 64.8355 206.489 73.7954C203.17 83.0743 197.7 93.7378 190.227 105.481C182.048 118.19 173.093 130.238 163.429 141.539C153.333 153.423 142.645 164.648 131.418 175.16C120.872 185.118 109.771 194.3 98.1813 202.649C87.0039 210.623 76.7317 216.56 67.6536 220.315C58.5756 224.07 51.231 225.389 45.8252 224.302C40.6057 223.236 37.402 219.952 36.3106 214.494C35.2192 209.035 36.3106 201.757 39.5207 192.797C42.8399 183.518 48.3098 172.855 55.7828 161.111H55.7507ZM55.0381 161.416C24.1252 209.985 29.5053 236.807 67.0501 221.279C104.595 205.751 160.103 153.768 191.023 105.177C221.942 56.586 216.555 29.7859 179.004 45.3136C141.453 60.8412 85.9253 112.825 55.006 161.416H55.0381Z" stroke="#180344" stroke-width="0.134619"/>
<path d="M54.6208 153.957C63.8383 141.162 73.8374 129.111 84.5449 117.892C95.5383 106.283 107.127 95.4149 119.252 85.3438C130.474 75.9291 142.252 67.3915 154.505 59.7906C166.222 52.6357 176.847 47.5975 186.079 44.8139C195.311 42.0302 202.592 41.6677 207.728 43.77C212.691 45.778 215.432 49.9463 215.939 56.1805C216.446 62.4148 214.61 70.3888 210.546 79.8924C206.335 89.7223 199.882 100.763 191.363 112.709C182.145 125.504 172.146 137.555 161.439 148.774C150.444 160.381 138.855 171.249 126.732 181.322C115.522 190.71 103.759 199.223 91.5236 206.803C79.8005 213.958 69.1816 218.996 59.9495 221.78C50.7173 224.563 43.3727 224.926 38.2366 222.86C33.2739 220.852 30.5325 216.684 30.0189 210.449C29.5052 204.215 31.3542 196.241 35.4182 186.737C39.649 176.908 46.1013 165.867 54.6208 153.957ZM53.8632 154.182C18.636 203.592 21.0371 234.313 59.2176 222.802C97.398 211.29 156.906 161.909 192.114 112.485C227.322 63.0599 224.94 32.3526 186.76 43.8642C148.579 55.3759 89.0647 104.757 53.8632 154.182V154.182Z" stroke="#180344" stroke-width="0.134619"/>
<path d="M54.2871 145.722C64.5083 132.993 75.5165 121.099 87.2287 110.129C99.0622 98.9603 111.498 88.6321 124.465 79.2038C136.269 70.5124 148.627 62.8217 161.439 56.1951C173.599 50.0261 184.468 46.0463 193.745 44.3718C203.022 42.6972 210.148 43.4149 214.931 46.5465C219.554 49.5476 221.801 54.6293 221.615 61.6609C221.428 68.6926 218.822 77.2973 213.853 87.2649C208.717 97.5804 201.269 108.896 191.716 120.901C181.497 133.63 170.491 145.524 158.781 156.494C146.946 167.661 134.51 177.989 121.544 187.419C109.73 196.112 97.3611 203.803 84.5387 210.428C72.379 216.597 61.5097 220.576 52.2326 222.251C42.9555 223.926 35.8228 223.208 31.0462 220.076C26.4302 217.075 24.1831 211.993 24.3693 204.962C24.5555 197.93 27.1749 189.325 32.1376 179.329C37.2737 169.013 44.7275 157.697 54.2742 145.693L54.2871 145.722ZM53.5166 145.831C14.0136 195.487 13.0699 230.116 51.4686 223.179C89.8674 216.241 152.977 170.362 192.48 120.705C231.983 71.0486 232.927 36.4195 194.528 43.3569C156.129 50.2943 93.0196 96.2031 53.5166 145.86V145.831Z" stroke="#180344" stroke-width="0.134619"/>
<path d="M54.8134 136.559C65.9887 124.054 77.96 112.49 90.6313 101.959C103.218 91.4074 116.408 81.8056 130.115 73.2165C142.431 65.3953 155.29 58.7185 168.565 53.2524C181.052 48.2505 192.05 45.4958 201.256 45.0608C210.463 44.6259 217.307 46.5107 221.647 50.7369C225.826 54.7964 227.476 60.8132 226.552 68.6205C225.627 76.4279 222.173 85.627 216.279 95.9715C210.187 106.686 201.738 118.154 191.177 130.042C179.999 142.544 168.028 154.108 155.359 164.643C142.771 175.193 129.582 184.795 115.875 193.385C103.559 201.198 90.6997 207.865 77.4251 213.321C64.9444 218.322 53.9467 221.077 44.7403 221.512C35.5338 221.947 28.69 220.062 24.35 215.836C20.1705 211.776 18.5205 205.76 19.445 197.952C20.3695 190.145 23.8235 180.946 29.7172 170.601C35.8099 159.887 44.2523 148.419 54.8199 136.53L54.8134 136.559ZM54.0623 136.53C10.3605 185.854 5.80223 224.317 43.88 222.512C81.9577 220.707 148.239 179.329 191.941 130.035C235.643 80.7411 240.194 42.3207 202.117 44.0895C164.039 45.8583 97.7512 87.2653 54.0559 136.559L54.0623 136.53Z" stroke="#180344" stroke-width="0.134619"/>
<path d="M56.3028 126.36C68.3793 114.252 81.257 103.204 94.8236 93.311C108.082 83.5598 121.94 74.8895 136.291 67.3664C150.268 60.0737 163.564 54.5934 175.813 51.0776C188.487 47.453 199.484 46.0539 208.485 46.9963C217.486 47.9387 223.964 51.1211 227.746 56.4782C231.386 61.6468 232.355 68.6132 230.628 77.1744C228.901 85.7357 224.568 95.4713 217.75 106.098C210.688 117.095 201.256 128.571 189.713 140.235C177.638 152.344 164.76 163.392 151.192 173.283C137.937 183.036 124.081 191.706 109.731 199.228C95.7545 206.521 82.4584 212.001 70.2088 215.517C57.5291 219.141 46.5378 220.541 37.5304 219.598C28.523 218.656 22.0579 215.473 18.27 210.116C14.6362 204.948 13.6668 197.981 15.3938 189.42C17.1208 180.859 21.4544 171.123 28.2726 160.496C35.3347 149.499 44.7659 138.024 56.3028 126.36V126.36ZM55.5709 126.28C7.83092 174.472 -0.675744 216.684 36.5674 220.555C73.8105 224.426 142.692 188.507 190.426 140.314C238.159 92.1222 246.672 49.9105 209.429 46.0757C172.186 42.2409 103.298 78.0878 55.5709 126.28Z" stroke="#180344" stroke-width="0.134619"/>
<path d="M58.8325 115.246C84.2306 92.6302 112.586 74.6066 142.885 61.8201C157.253 55.8541 170.774 51.7945 183.062 49.7648C195.787 47.6625 206.63 47.8293 215.291 50.265C223.952 52.7007 229.916 57.2604 233.017 63.8136C236.002 70.1493 236.227 78.0654 233.627 87.3443C231.027 96.6232 225.794 106.815 218.032 117.609C210.001 128.788 199.607 140.132 187.139 151.347C174.25 162.875 160.554 173.203 146.185 182.228C132.36 191.003 117.948 198.541 103.08 204.773C88.7053 210.739 75.191 214.799 62.8964 216.828C50.1782 218.931 39.3346 218.764 30.6674 216.328C22.0003 213.892 16.0488 209.333 12.9479 202.779C9.9561 196.444 9.73782 188.528 12.338 179.249C14.9381 169.97 20.1834 159.756 27.9645 148.984C35.9961 137.806 46.3903 126.461 58.8518 115.246H58.8325ZM58.1455 115.05C6.59196 161.445 -6.15199 207.165 29.6787 217.263C65.5094 227.361 136.343 197.923 187.89 151.557C239.437 105.192 252.181 59.4424 216.357 49.3443C180.532 39.2463 109.673 68.685 58.1391 115.05H58.1455Z" stroke="#180344" stroke-width="0.134619"/>
<path d="M62.4727 103.248C76.0981 92.4668 90.5344 83.0552 105.616 75.1214C119.877 67.5224 134.7 61.3467 149.915 56.6651C164.527 52.2287 178.112 49.793 190.284 49.416C202.887 49.0391 213.397 50.8658 221.595 54.9543C229.794 59.0429 235.078 65.0161 237.402 72.809C239.642 80.3336 239.007 89.192 235.508 99.1451C232.009 109.098 225.826 119.638 217.133 130.483C208.145 141.705 196.82 152.752 183.505 163.329C169.878 174.107 155.442 183.519 140.362 191.456C126.1 199.053 111.277 205.229 96.0628 209.912C81.4506 214.348 67.8656 216.784 55.6931 217.161C43.084 217.538 32.5806 215.675 24.3821 211.623C16.1836 207.57 10.8999 201.561 8.56939 193.768C6.32876 186.243 6.97078 177.385 10.4954 167.432C14.0201 157.479 20.1705 146.939 28.8698 136.094C37.858 124.872 49.1831 113.825 62.4984 103.248H62.4727ZM61.8564 102.915C6.79101 146.649 -10.4534 195.704 23.3357 212.485C57.1248 229.267 129.171 207.411 184.237 163.677C239.302 119.943 256.547 70.8879 222.757 54.1062C188.968 37.3245 116.922 59.1806 61.85 102.915H61.8564Z" stroke="#180344" stroke-width="0.134619"/>
<path d="M67.2814 90.4255C81.5299 80.5957 96.5788 72.3279 112.222 65.7349C126.813 59.4853 141.913 54.8719 157.304 51.9616C171.994 49.2794 185.469 48.6632 197.353 50.1348C209.654 51.7006 219.727 55.4049 227.245 61.168C234.763 66.931 239.309 74.4774 240.727 83.5171C242.114 92.216 240.554 102.039 236.098 112.601C231.643 123.163 224.542 133.957 214.912 144.707C204.967 155.827 192.788 166.404 178.715 176.139C164.467 185.969 149.418 194.237 133.775 200.83C119.182 207.066 104.082 211.667 88.6925 214.567C74.0032 217.249 60.5274 217.865 48.6373 216.394C36.3107 214.893 26.2696 211.225 18.7452 205.426C11.2209 199.626 6.68825 192.116 5.26298 183.077C3.88266 174.378 5.43633 164.555 9.89831 153.993C14.3603 143.431 21.4866 132.637 31.0847 121.887C41.0359 110.767 53.2149 100.19 67.2878 90.4545L67.2814 90.4255ZM66.6458 89.9833C8.44736 130.216 -13.5223 182.229 17.5896 206.194C48.7015 230.16 121.12 216.901 179.332 176.639C237.543 136.378 259.513 84.3652 228.401 60.3996C197.289 36.4339 124.908 49.6926 66.665 89.9543L66.6458 89.9833Z" stroke="#180344" stroke-width="0.134619"/>
<path d="M73.3162 76.8762C88.0803 68.1779 103.621 61.2743 119.676 56.2814C134.459 51.5982 149.66 48.7995 164.996 47.9376C179.576 47.2127 192.75 48.6118 204.158 52.0986C215.971 55.7232 225.345 61.3848 232.073 69.0036C238.801 76.6224 242.403 85.6766 242.839 96.0211C243.263 105.974 240.708 116.645 235.251 127.736C229.794 138.827 221.717 149.766 211.233 160.263C200.377 171.137 187.402 181.039 172.712 189.716C157.948 198.414 142.408 205.318 126.353 210.311C111.57 214.994 96.3683 217.793 81.0332 218.655C66.4531 219.38 53.2726 217.981 41.8705 214.494C30.0574 210.869 20.6841 205.208 13.9622 197.589C7.24032 189.97 3.56801 180.879 3.15712 170.571C2.7334 160.618 5.2886 149.947 10.7393 138.856C16.19 127.765 24.2793 116.826 34.7634 106.329C45.6198 95.4557 58.5884 85.5534 73.3162 76.8762V76.8762ZM72.7641 76.2455C11.8564 112.15 -15.0503 166.794 12.7167 198.299C40.4837 229.804 112.325 226.245 173.22 190.325C234.115 154.406 261.015 99.7979 233.28 68.2932C205.545 36.7885 133.672 40.3478 72.7769 76.2672L72.7641 76.2455Z" stroke="#180344" stroke-width="0.134619"/>
<path d="M80.6095 62.6893C95.7609 55.3202 111.637 50.0175 127.9 46.8934C142.746 43.9563 157.865 43.184 172.886 44.5954C187.145 46.0452 199.85 49.6698 210.559 55.2879C221.666 61.1307 230.205 68.9308 235.925 78.4851C241.591 87.7949 244.279 99.0067 243.546 110.273C242.904 121.443 239.289 132.948 232.811 144.467C226.333 155.986 217.307 166.939 205.988 177.03C194.278 187.476 180.603 196.523 165.361 203.924C150.21 211.292 134.334 216.595 118.071 219.72C103.225 222.657 88.1057 223.429 73.0851 222.018C58.8196 220.568 46.1206 216.944 35.4118 211.325C24.2986 205.483 15.7663 197.683 10.0459 188.128C4.38144 178.818 1.69783 167.605 2.43809 156.341C3.08011 145.17 6.69463 133.658 13.1982 122.147C19.7018 110.635 28.7028 99.6743 40.0151 89.5835C52.4488 78.6564 66.0963 69.6148 80.6095 62.6893V62.6893ZM80.1537 61.8918C17.0888 92.5267 -14.8577 149.309 8.80685 188.752C32.4714 228.194 102.772 235.32 165.843 204.7C228.914 174.079 260.861 117.297 237.19 77.8399C213.519 38.3829 143.218 31.286 80.1537 61.8918Z" stroke="#180344" stroke-width="0.134619"/>
<path d="M89.238 48.0043C104.648 42.149 120.691 38.6837 136.927 37.7032C151.708 36.7231 166.537 38.2032 180.937 42.0962C194.663 45.9165 206.617 51.8825 216.466 59.8421C226.661 68.0771 234.14 78.0954 238.698 89.607C243.252 101.088 244.663 113.844 242.75 126.237C240.945 138.597 236.214 150.884 228.683 162.715C221.152 174.545 211.22 185.383 199.151 194.879C186.099 205.022 171.83 213.007 156.778 218.591C141.368 224.446 125.325 227.911 109.089 228.892C94.3056 229.872 79.4748 228.392 65.0727 224.499C51.3465 220.679 39.3922 214.713 29.5502 206.753C19.3358 198.518 11.8499 188.5 7.29163 176.988C2.73814 165.507 1.32957 152.75 3.24696 140.358C5.05101 127.998 9.78264 115.711 17.307 103.881C24.8314 92.05 34.7762 81.2125 46.8396 71.7162C59.8906 61.572 74.1593 53.5872 89.2124 48.0043H89.238ZM88.8336 47.0619C24.2536 71.4552 -12.8419 129.847 6.01403 177.474C24.8699 225.101 92.5252 243.934 157.131 219.519C221.736 195.104 258.838 136.734 239.982 89.1068C221.127 41.48 153.471 22.6468 88.8593 47.0619H88.8336Z" stroke="#180344" stroke-width="0.134619"/>
<path d="M99.1701 32.9548C114.723 28.8166 130.749 27.4276 146.679 28.8373C161.28 30.0646 175.599 34.0208 189.052 40.5447C202.001 46.9239 213.005 55.4344 221.743 65.8297C230.536 76.0964 236.888 88.7068 240.207 102.489C243.426 116.073 243.448 130.371 240.272 143.968C237.209 157.473 231.283 170.427 222.725 182.475C214.167 194.524 203.337 205.057 190.58 213.777C177.015 222.971 162.249 229.684 146.827 233.669C131.274 237.807 115.247 239.196 99.3178 237.786C84.7169 236.559 70.3979 232.603 56.945 226.079C43.9956 219.7 32.9915 211.189 24.2537 200.794C15.2206 190.007 8.9995 177.677 5.78302 164.106C2.56762 150.521 2.5455 136.224 5.71882 122.627C8.78764 109.122 14.707 96.1673 23.265 84.1192C31.823 72.0712 42.6602 61.5672 55.417 52.8465C68.9809 43.6518 83.7479 36.9383 99.1701 32.9548V32.9548ZM98.9069 31.8457C33.4537 49.0624 -8.81633 108.44 4.48616 164.476C17.7886 220.512 81.6367 251.966 147.09 234.749C212.543 217.532 254.813 158.155 241.511 102.09C228.208 46.025 164.36 14.629 98.9069 31.8457V31.8457Z" stroke="#180344" stroke-width="0.134619"/>
<path d="M110.431 17.7103C126.002 15.4983 141.798 16.4311 157.08 20.4649C171.356 24.1794 184.91 30.8129 197.071 40.0376C208.672 48.7848 218.583 60.0965 226.205 73.2894C233.797 86.4624 238.623 101.419 240.317 117.019C242.01 132.618 240.526 148.449 235.977 163.302C231.41 178.187 224.215 191.872 214.829 203.527C205.013 215.811 193.287 225.958 180.231 233.466C152.05 249.673 119.714 254.156 88.898 246.13C74.6236 242.416 61.072 235.783 48.9135 226.558C37.3119 217.811 27.4008 206.499 19.779 193.306C12.1843 180.135 7.35435 165.179 5.65757 149.579C3.9608 133.98 5.44203 118.148 9.98827 103.294C14.5668 88.4043 21.7744 74.7195 31.1747 63.0681C40.9899 50.7848 52.7164 40.6374 65.7727 33.1292C79.7382 25.0403 94.8661 19.8194 110.45 17.7103H110.431ZM110.309 16.4344C44.8238 25.5103 -2.62084 85.1997 4.37709 149.746C11.375 214.292 70.1962 259.244 135.707 250.161C201.218 241.078 248.637 181.396 241.639 116.849C234.641 52.3031 175.801 7.35124 110.29 16.4344H110.309Z" stroke="#180344" stroke-width="0.134619"/>
<path d="M122.982 2.44983C149.717 2.46898 175.624 12.9222 196.315 32.0388C217.006 51.1555 231.208 77.7601 236.516 107.346C241.825 136.932 237.912 167.68 225.442 194.382C212.972 221.084 192.71 242.098 168.09 253.864C139.817 267.085 108.06 267.145 79.7478 254.031C51.4354 240.917 28.8644 215.694 16.958 183.863C5.05172 152.032 4.77623 116.176 16.1917 84.1166C27.6071 52.0572 49.7872 26.3955 77.8939 12.7291C92.1582 5.91397 107.494 2.41782 122.982 2.44983V2.44983ZM122.982 1C99.8089 1 77.1558 8.75907 57.8878 23.296C38.6197 37.833 23.6021 58.4949 14.734 82.6689C5.86588 106.843 3.54557 133.443 8.0665 159.107C12.5874 184.77 23.7465 208.343 40.1326 226.845C56.5188 245.347 77.396 257.947 100.124 263.051C122.852 268.156 146.411 265.536 167.82 255.523C189.23 245.51 207.529 228.553 220.403 206.797C233.278 185.041 240.15 159.463 240.15 133.297C240.15 115.923 237.119 98.7199 231.231 82.6689C225.343 66.618 216.712 52.0337 205.832 39.7488C194.952 27.4639 182.036 17.719 167.82 11.0705C153.605 4.42195 138.369 1 122.982 1V1Z" stroke="#180344" stroke-width="0.134619"/>
</svg>
