<svg xmlns="http://www.w3.org/2000/svg" width="41" height="32" viewBox="0 0 41 32" fill="none">
  <path d="M4.03601 4C4.03601 2.93913 4.45744 1.92172 5.20759 1.17157C5.95773 0.421427 6.97515 0 8.03601 0C9.09688 0 10.1143 0.421427 10.8644 1.17157C11.6146 1.92172 12.036 2.93913 12.036 4C12.036 5.06087 11.6146 6.07828 10.8644 6.82843C10.1143 7.57857 9.09688 8 8.03601 8C6.97515 8 5.95773 7.57857 5.20759 6.82843C4.45744 6.07828 4.03601 5.06087 4.03601 4ZM1.65476 14.5875C1.86726 11.9937 4.03601 10 6.63601 10H9.43601C11.1235 10 12.6235 10.8375 13.5298 12.1313C13.361 12.25 13.2048 12.3812 13.061 12.525L9.06101 16.525C7.69226 17.8937 7.69226 20.1063 9.06101 21.475L12.036 24.45V29C12.036 30.6562 10.6923 32 9.03601 32H7.03601C5.37976 32 4.03601 30.6562 4.03601 29V21.7687C2.37976 21.175 1.24226 19.5312 1.39851 17.6688L1.65476 14.5875ZM28.036 4C28.036 2.93913 28.4574 1.92172 29.2076 1.17157C29.9577 0.421427 30.9751 0 32.036 0C33.0969 0 34.1143 0.421427 34.8644 1.17157C35.6146 1.92172 36.036 2.93913 36.036 4C36.036 5.06087 35.6146 6.07828 34.8644 6.82843C34.1143 7.57857 33.0969 8 32.036 8C30.9751 8 29.9577 7.57857 29.2076 6.82843C28.4574 6.07828 28.036 5.06087 28.036 4ZM27.011 12.525C26.8673 12.3812 26.7048 12.25 26.5423 12.1313C27.4485 10.8375 28.9548 10 30.636 10H33.436C36.036 10 38.2048 11.9937 38.4173 14.5875L38.6735 17.6688C38.8298 19.5312 37.6923 21.175 36.036 21.7687V29C36.036 30.6562 34.6923 32 33.036 32H31.036C29.3798 32 28.036 30.6562 28.036 29V24.45L31.011 21.475C32.3798 20.1063 32.3798 17.8937 31.011 16.525L27.011 12.525ZM17.036 15V17H23.036V15C23.036 14.3938 23.3985 13.8438 23.961 13.6125C24.5235 13.3813 25.1673 13.5063 25.5985 13.9375L29.5985 17.9375C30.186 18.525 30.186 19.475 29.5985 20.0562L25.5985 24.0562C25.1673 24.4875 24.5235 24.6125 23.961 24.3813C23.3985 24.15 23.036 23.6 23.036 22.9937V21H17.036V23C17.036 23.6063 16.6735 24.1562 16.111 24.3875C15.5485 24.6188 14.9048 24.4937 14.4735 24.0625L10.4735 20.0625C9.88601 19.475 9.88601 18.525 10.4735 17.9438L14.4735 13.9438C14.9048 13.5125 15.5485 13.3875 16.111 13.6187C16.6735 13.85 17.036 14.4 17.036 15.0063V15Z" fill="#100871"/>
</svg>