<svg xmlns="http://www.w3.org/2000/svg" width="32" height="32" viewBox="0 0 32 32" fill="none">
  <path d="M3.5 14C3.10218 14 2.72064 14.158 2.43934 14.4393C2.15804 14.7206 2 15.1022 2 15.5V16.5C2 16.6326 2.05268 16.7598 2.14645 16.8536C2.24021 16.9473 2.36739 17 2.5 17H3.5L9 24L7 28C7 28 6 30 8 30H22C23 30 24 29 24 28V20C24 18.5 26 17 26 17H23.5C23.6326 17 23.7598 16.9473 23.8536 16.8536C23.9473 16.7598 24 16.6326 24 16.5V14.5C24 14.3674 23.9473 14.2402 23.8536 14.1464C23.7598 14.0527 23.6326 14 23.5 14H3.5Z" fill="#786090"/>
  <path d="M21 2C20.7348 2 20.4804 2.10536 20.2929 2.29289C20.1054 2.48043 20 2.73478 20 3V15C20 15.768 20.289 16.47 20.764 17H3.2C4.127 21.564 8.162 25 13 25C17.49 25 21.289 22.041 22.553 17.967C22.699 17.989 22.848 18 23 18H25C25.7956 18 26.5587 17.6839 27.1213 17.1213C27.6839 16.5587 28 15.7956 28 15V3C28 2.73478 27.8946 2.48043 27.7071 2.29289C27.5196 2.10536 27.2652 2 27 2H21Z" fill="#C1B7CC"/>
</svg>