<svg xmlns="http://www.w3.org/2000/svg" width="33" height="32" viewBox="0 0 33 32" fill="none">
  <path d="M18.956 15.8398H8.41602V29.9998H18.956V15.8398Z" fill="#321B41"/>
  <path d="M17.616 5.35955C17.8056 4.47765 18.2605 3.67489 18.9196 3.05909C19.5787 2.44329 20.4105 2.04396 21.3033 1.91473C22.196 1.7855 23.1069 1.93257 23.9136 2.33618C24.7203 2.73979 25.3842 3.38061 25.816 4.17255C26.103 4.69797 26.2802 5.27621 26.3369 5.87218C26.3936 6.46815 26.3287 7.06943 26.146 7.63955L25.406 10.3896C25.1783 11.2415 24.7135 12.0114 24.0656 12.6097C23.4177 13.208 22.6134 13.6102 21.746 13.7696C21.1504 13.8747 20.5389 13.8477 19.9548 13.6904C19.3708 13.5332 18.8284 13.2495 18.366 12.8595C17.6941 12.2896 17.1975 11.5408 16.9338 10.7001C16.67 9.85942 16.65 8.96118 16.876 8.10955L17.616 5.35955Z" fill="#6B438B"/>
  <path d="M17.328 12C17.4941 11.6195 17.5628 11.2036 17.5279 10.7899C17.493 10.3762 17.3557 9.97772 17.1282 9.6304C16.9008 9.28307 16.5904 8.99786 16.2251 8.80051C15.8599 8.60316 15.4512 8.49988 15.036 8.5H7.18804C4.21904 8.5 3.05404 12.35 5.52304 13.996L7.17304 15.096L8.65804 17.446L11.029 17.666L14.036 19.672V30H28.036V19C28.036 17.1435 27.2985 15.363 25.9858 14.0503C24.673 12.7375 22.8926 12 21.036 12H17.328Z" fill="#8D65C5"/>
  <path d="M18.036 5.35916C17.9269 4.75794 17.6943 4.18589 17.3529 3.67911C17.0116 3.17233 16.5688 2.74183 16.0527 2.41481C15.5365 2.08779 14.9581 1.87134 14.3541 1.77913C13.7501 1.68692 13.1335 1.72096 12.5432 1.87909C11.953 2.03722 11.402 2.31602 10.925 2.69786C10.4479 3.07971 10.0553 3.55632 9.77173 4.0976C9.4882 4.63887 9.31998 5.23306 9.2777 5.84263C9.23541 6.4522 9.31997 7.06392 9.52604 7.63916L10.266 10.3892C10.4949 11.2406 10.96 12.0098 11.6077 12.608C12.2554 13.2061 13.0591 13.6087 13.926 13.7692C14.5233 13.8735 15.1361 13.8462 15.7217 13.689C16.3072 13.5318 16.8514 13.2486 17.316 12.8592C17.9873 12.2889 18.4827 11.5397 18.7447 10.6987C19.0068 9.85783 19.0245 8.95979 18.796 8.10916L18.036 5.35916ZM20.436 18.3392C19.9214 18.3368 19.4238 18.1549 19.0289 17.8248C18.6341 17.4948 18.3668 17.0373 18.2732 16.5312C18.1796 16.0252 18.2655 15.5024 18.5161 15.0529C18.7667 14.6034 19.1663 14.2555 19.646 14.0692L25.516 11.8092C26.0561 11.6262 26.6459 11.6591 27.1623 11.9008C27.6787 12.1426 28.0817 12.5747 28.2869 13.1066C28.4922 13.6386 28.484 14.2293 28.2639 14.7553C28.0438 15.2813 27.629 15.7019 27.106 15.9292L21.236 18.1892C20.981 18.2883 20.7097 18.3391 20.436 18.3392ZM10.036 22.4292H17.706C18.0024 22.4278 18.296 22.4851 18.5702 22.5975C18.8443 22.71 19.0935 22.8756 19.3035 23.0846C19.5135 23.2937 19.6801 23.5422 19.7938 23.8158C19.9075 24.0894 19.966 24.3828 19.966 24.6792C19.9556 25.2583 19.7181 25.8102 19.3048 26.2161C18.8915 26.6219 18.3353 26.8493 17.756 26.8492H9.75604C9.09405 26.8493 8.44081 26.6979 7.8463 26.4067C7.2518 26.1156 6.73178 25.6922 6.32604 25.1692C5.91764 24.6475 5.63558 24.0384 5.50199 23.3895C5.3684 22.7407 5.3869 22.0697 5.55604 21.4292L7.17404 15.0852L11.031 17.6532L9.88604 22.2392C9.87974 22.2619 9.87888 22.2858 9.88354 22.3089C9.8882 22.332 9.89824 22.3537 9.91285 22.3722C9.92746 22.3907 9.94623 22.4055 9.96764 22.4154C9.98904 22.4253 10.0125 22.43 10.036 22.4292Z" fill="#533566"/>
</svg>