<svg xmlns="http://www.w3.org/2000/svg" width="32" height="32" viewBox="0 0 32 32" fill="none">
  <path d="M14.4229 12.1697C13.5254 12.8354 12.4384 13.1963 11.3209 13.1997C10.1579 13.1997 9.0909 12.8097 8.2179 12.1697C7.4679 12.7947 6.7199 13.6897 6.1079 14.7927C4.6849 17.3557 4.5279 19.9847 5.7579 20.6667C6.3059 20.9787 6.8839 20.7447 7.4799 20.1707C7.36832 20.7891 7.31243 21.4163 7.3129 22.0447C7.3129 24.9827 8.4529 27.3567 9.8559 27.3567C10.7019 27.3567 11.1209 26.4917 11.3219 25.1687C11.5219 26.4827 11.9419 27.3567 12.7819 27.3567C14.1789 27.3567 15.3279 24.9817 15.3279 22.0447C15.3279 21.3847 15.2659 20.7547 15.1599 20.1717C15.7599 20.7467 16.3359 20.9847 16.8859 20.6687C18.1129 19.9867 17.9539 17.3587 16.5319 14.7947C15.9219 13.6907 15.1719 12.7967 14.4219 12.1717L14.4229 12.1697ZM11.3199 12.1997C11.882 12.1995 12.4386 12.0886 12.9579 11.8733C13.4771 11.658 13.9489 11.3425 14.3462 10.9449C14.7436 10.5473 15.0587 10.0753 15.2736 9.55586C15.4886 9.03645 15.5991 8.4798 15.5989 7.91767C15.5987 7.35555 15.4878 6.79897 15.2725 6.27971C15.0572 5.76045 14.7417 5.28868 14.3441 4.89134C13.9465 4.494 13.4745 4.17887 12.9551 3.96393C12.4357 3.749 11.879 3.63848 11.3169 3.63867C10.1814 3.63907 9.09252 4.09054 8.28986 4.89376C7.48721 5.69697 7.0365 6.78615 7.0369 7.92167C7.0373 9.0572 7.48877 10.1461 8.29198 10.9487C9.0952 11.7514 10.1844 12.2021 11.3199 12.2017V12.1997ZM21.9869 17.6697C23.4949 17.6697 24.7189 16.4457 24.7189 14.9357C24.7189 13.4257 23.4929 12.1997 21.9859 12.1997C21.2603 12.1999 20.5646 12.4883 20.0515 13.0013C19.5385 13.5144 19.2502 14.2101 19.2499 14.9357C19.2504 15.6612 19.539 16.3569 20.0523 16.8697C20.5655 17.3826 21.2613 17.6697 21.9869 17.6697ZM25.3169 19.3267C24.9269 18.6217 24.4489 18.0497 23.9689 17.6497C23.4089 18.0597 22.7289 18.3097 21.9859 18.3097C21.2419 18.3097 20.5599 18.0597 20.0029 17.6497C19.5229 18.0497 19.0449 18.6217 18.6529 19.3267C17.7429 20.9647 17.6429 22.6447 18.4289 23.0807C18.7789 23.2807 19.1489 23.1307 19.5289 22.7647C19.4594 23.1599 19.4246 23.5604 19.4249 23.9617C19.4249 25.8417 20.1529 27.3587 21.0499 27.3587C21.5899 27.3587 21.8599 26.8057 21.9879 25.9607C22.1159 26.8007 22.3839 27.3577 22.9219 27.3577C23.8149 27.3577 24.5489 25.8397 24.5489 23.9617C24.5489 23.5417 24.5089 23.1377 24.4409 22.7657C24.8239 23.1327 25.1929 23.2857 25.5449 23.0827C26.3269 22.6487 26.2249 20.9677 25.3169 19.3297V19.3267Z" fill="#180344"/>
</svg>