<svg xmlns="http://www.w3.org/2000/svg" width="32" height="32" viewBox="0 0 32 32" fill="none">
  <path opacity="0.6" d="M26.288 27.148C28.1906 26.112 29.3333 24.7814 29.3333 23.332C29.3333 21.796 28.0493 20.3934 25.9386 19.332C23.4973 18.1054 19.9493 17.332 16 17.332C12.0506 17.332 8.50263 18.1054 6.06129 19.332C3.95063 20.3934 2.66663 21.796 2.66663 23.332C2.66663 24.868 3.95063 26.2707 6.06129 27.332C8.50263 28.5587 12.0506 29.332 16 29.332C20.1426 29.332 23.8426 28.4827 26.288 27.148Z" fill="#180344"/>
  <path fill-rule="evenodd" clip-rule="evenodd" d="M12.3333 5.33268C12.3333 4.36022 12.7196 3.42759 13.4072 2.73996C14.0949 2.05232 15.0275 1.66602 16 1.66602C16.9724 1.66602 17.9051 2.05232 18.5927 2.73996C19.2803 3.42759 19.6666 4.36022 19.6666 5.33268C19.6666 6.30514 19.2803 7.23777 18.5927 7.92541C17.9051 8.61304 16.9724 8.99935 16 8.99935C15.0275 8.99935 14.0949 8.61304 13.4072 7.92541C12.7196 7.23777 12.3333 6.30514 12.3333 5.33268Z" fill="#180344"/>
  <path d="M10.964 15.4305L8.06401 14.4638C7.56713 14.2999 7.15209 13.9516 6.90447 13.4907C6.65686 13.0298 6.59556 12.4914 6.73322 11.9866C6.87087 11.4818 7.19698 11.0491 7.6443 10.7777C8.09162 10.5062 8.62604 10.4168 9.13735 10.5278L11.668 11.0705L11.948 11.1292C14.7154 11.7022 17.5729 11.6822 20.332 11.0705L22.8613 10.5278C23.373 10.4157 23.9082 10.5044 24.3563 10.7756C24.8045 11.0468 25.1313 11.4798 25.2693 11.9851C25.4072 12.4904 25.3458 13.0294 25.0977 13.4907C24.8495 13.9521 24.4337 14.3004 23.936 14.4638L21.036 15.4305C20.6853 15.5479 20.5107 15.6065 20.3787 15.6878C20.159 15.8233 19.9833 16.0197 19.873 16.253C19.7627 16.4864 19.7225 16.7468 19.7573 17.0025C19.7787 17.1558 19.8453 17.3278 19.9773 17.6732L21.64 21.9958C21.8189 22.4582 21.8163 22.971 21.6328 23.4315C21.4493 23.892 21.0984 24.2661 20.6506 24.4787C20.2028 24.6913 19.6912 24.7267 19.2184 24.5778C18.7455 24.4289 18.3465 24.1067 18.1013 23.6758L16 19.9985L13.8987 23.6745C13.6535 24.1053 13.2545 24.4275 12.7817 24.5764C12.3088 24.7253 11.7972 24.6899 11.3494 24.4773C10.9016 24.2647 10.5508 23.8907 10.3673 23.4302C10.1838 22.9697 10.1812 22.4568 10.36 21.9945L12.0227 17.6732C12.156 17.3278 12.2213 17.1558 12.2427 17.0025C12.2775 16.7468 12.2373 16.4864 12.127 16.253C12.0167 16.0197 11.8411 15.8233 11.6213 15.6878C11.4893 15.6065 11.3147 15.5479 10.964 15.4305Z" fill="#180344"/>
</svg>