<svg xmlns="http://www.w3.org/2000/svg" width="32" height="32" viewBox="0 0 32 32" fill="none">
<path d="M19.0949 26.6094C19.6624 26.1719 21.3699 26.1119 22.0949 26.0094C22.5499 25.9444 23.3674 25.8769 23.7174 25.4969C24.3549 24.8069 24.3974 24.1419 24.3274 23.5544C24.2524 22.9419 24.1274 22.3519 24.3574 21.9819C24.4749 21.7944 24.9699 20.8494 24.3774 20.6169C24.0624 20.4919 23.8574 20.6044 22.5449 20.6494C21.9349 20.6694 21.4699 20.4369 21.6699 20.1069C21.8924 19.8544 22.8449 19.7469 23.7399 19.4169C24.3724 19.1844 24.7049 19.0419 24.7774 18.4969C24.8224 18.1669 24.5824 17.9719 24.4599 17.5619C24.3474 17.1894 24.4549 17.0194 24.6074 16.8694C24.8399 16.6419 25.4549 16.2744 25.5374 15.6044C25.6749 14.4594 23.7649 13.8694 23.1374 12.6819C22.8374 12.1144 23.0924 10.5719 23.0924 10.0694C23.0924 8.03444 22.0749 4.62444 18.8599 2.67694C15.9699 0.92694 12.3449 0.73194 9.06492 1.55194C7.49742 1.94444 5.90742 3.00444 4.87492 3.93194C2.40742 6.14694 1.84992 9.41194 1.66992 10.5819C1.09992 14.2619 2.09492 17.0769 3.52242 19.3369C5.58492 22.6044 8.55242 24.7119 9.00742 26.5894C9.07742 26.8819 9.13242 27.4919 9.13242 28.0169C9.13242 29.1394 9.06992 30.0694 9.00492 30.7494H18.4824C18.4649 29.1794 18.4349 27.1219 19.0949 26.6094Z" fill="#1976D2"/>
<path d="M26.2 17.837C26.0817 17.8368 25.9667 17.7986 25.8717 17.7281C25.7768 17.6575 25.7071 17.5583 25.673 17.4451C25.6388 17.3318 25.6419 17.2106 25.6819 17.0993C25.7219 16.988 25.7966 16.8925 25.895 16.827L29.68 14.3295C29.9325 14.162 30.275 14.232 30.4425 14.4845C30.61 14.737 30.54 15.0795 30.2875 15.247L26.5025 17.7445C26.41 17.807 26.305 17.837 26.2 17.837ZM29.985 24.587C29.88 24.587 29.775 24.557 29.6825 24.497L25.8975 21.9995C25.8371 21.9597 25.7852 21.9084 25.7447 21.8485C25.7043 21.7886 25.676 21.7213 25.6616 21.6504C25.6472 21.5796 25.6469 21.5066 25.6608 21.4356C25.6747 21.3647 25.7025 21.2971 25.7425 21.237C25.7823 21.1766 25.8336 21.1247 25.8935 21.0842C25.9534 21.0437 26.0207 21.0154 26.0916 21.001C26.1624 20.9866 26.2354 20.9864 26.3064 21.0003C26.3773 21.0141 26.4448 21.0419 26.505 21.082L30.29 23.5795C30.545 23.747 30.6125 24.0895 30.445 24.342C30.3375 24.4995 30.1625 24.587 29.985 24.587ZM26.3225 19.8445C26.2503 19.8451 26.1786 19.8315 26.1117 19.8045C26.0447 19.7775 25.9837 19.7375 25.9321 19.6869C25.8806 19.6363 25.8395 19.576 25.8113 19.5095C25.783 19.4431 25.7682 19.3717 25.7675 19.2995C25.7669 19.2272 25.7804 19.1556 25.8075 19.0886C25.8345 19.0216 25.8745 18.9606 25.9251 18.9091C25.9757 18.8575 26.0359 18.8165 26.1024 18.7882C26.1689 18.76 26.2403 18.7451 26.3125 18.7445L30.845 18.6645C31.15 18.662 31.4 18.902 31.405 19.2045C31.41 19.507 31.1675 19.7595 30.865 19.7645L26.3325 19.8445H26.3225Z" fill="#B0BEC5"/>
</svg>