<svg xmlns="http://www.w3.org/2000/svg" width="36" height="36" viewBox="0 0 36 36" fill="none">
  <path d="M23.3497 6.25708H12.6503C9.19796 6.25708 6.39984 9.05569 6.39984 12.5076V23.207C6.39984 26.6594 9.19845 29.4575 12.6508 29.4575H23.3492C26.8016 29.4575 29.6002 26.6589 29.6002 23.2065V12.5076C29.6002 9.05519 26.8021 6.25708 23.3497 6.25708Z" fill="white"/>
  <path d="M23.3497 6.25708H12.6503C9.19796 6.25708 6.39984 9.05569 6.39984 12.5076V23.207C6.39984 26.6594 9.19845 29.4575 12.6508 29.4575H23.3492C26.8016 29.4575 29.6002 26.6589 29.6002 23.2065V12.5076C29.6002 9.05519 26.8021 6.25708 23.3497 6.25708Z" stroke="black" stroke-width="0.992063" stroke-miterlimit="10"/>
  <path d="M18 23.4575C21.0929 23.4575 23.6002 20.9502 23.6002 17.8573C23.6002 14.7644 21.0929 12.2571 18 12.2571C14.9071 12.2571 12.3998 14.7644 12.3998 17.8573C12.3998 20.9502 14.9071 23.4575 18 23.4575Z" stroke="black" stroke-width="0.992063" stroke-miterlimit="10"/>
  <path d="M24.8001 12.257C25.4628 12.257 26 11.7198 26 11.0571C26 10.3944 25.4628 9.85718 24.8001 9.85718C24.1374 9.85718 23.6002 10.3944 23.6002 11.0571C23.6002 11.7198 24.1374 12.257 24.8001 12.257Z" fill="black"/>
</svg>