<svg xmlns="http://www.w3.org/2000/svg" width="29" height="30" viewBox="0 0 29 30" fill="none">
  <path d="M23.4881 10.4225V11.0178C23.4881 17.0118 18.9405 23.8809 10.6191 23.8809C8.16248 23.8862 5.75807 23.1723 3.70239 21.8273C4.0594 21.8758 4.41952 21.8977 4.77977 21.8928C6.81609 21.8984 8.79514 21.2191 10.3988 19.9642C9.45279 19.9503 8.53523 19.6385 7.77653 19.0732C7.01784 18.5079 6.45662 17.7179 6.17263 16.8154C6.45442 16.8751 6.74172 16.9051 7.02977 16.9047C7.43201 16.9048 7.83243 16.8507 8.22025 16.744C7.1956 16.5397 6.27377 15.9857 5.61251 15.1768C4.95125 14.3678 4.59165 13.3543 4.59525 12.3094V12.2499C5.22216 12.6001 5.92499 12.7922 6.64287 12.8094C5.68727 12.1806 5.00786 11.2106 4.74345 10.0977C4.47903 8.9847 4.64959 7.81278 5.22025 6.82135C6.35731 8.21986 7.77596 9.36341 9.38397 10.1777C10.992 10.9919 12.7534 11.4587 14.5536 11.5475C14.4645 11.2097 14.4224 10.8612 14.4286 10.5118C14.3951 9.58856 14.6469 8.67739 15.1498 7.9024C15.6528 7.1274 16.3823 6.52624 17.2392 6.18077C18.096 5.83529 19.0385 5.7623 19.9384 5.97172C20.8382 6.18114 21.6516 6.6628 22.2679 7.35111C23.2808 7.14669 24.2525 6.7745 25.1429 6.24992C24.8052 7.31621 24.087 8.22094 23.125 8.79159C24.0236 8.66777 24.8996 8.41518 25.7262 8.04159C25.1272 8.96161 24.3694 9.76781 23.4881 10.4225Z" stroke="#180344" stroke-width="1.19048" stroke-linecap="round" stroke-linejoin="round"/>
</svg>