<svg xmlns="http://www.w3.org/2000/svg" width="29" height="30" viewBox="0 0 29 30" fill="none">
  <path d="M22.6429 6.494C20.9893 4.84114 18.8827 3.71574 16.5895 3.2601C14.2963 2.80447 11.9195 3.03907 9.75961 3.93423C7.59975 4.8294 5.75383 6.34493 4.45527 8.28918C3.15672 10.2334 2.46386 12.5191 2.46429 14.8571C2.46429 17.9929 3.70957 21.0003 5.92635 23.2182C8.14313 25.4361 11.1499 26.6829 14.2857 26.6845C15.8375 26.6851 17.3744 26.3818 18.8095 25.7916C20.2401 25.1877 21.5415 24.3148 22.6429 23.2202C23.7412 22.122 24.6125 20.8182 25.207 19.3832C25.8014 17.9483 26.1074 16.4103 26.1074 14.8571C26.1074 13.3039 25.8014 11.7659 25.207 10.3309C24.6125 8.89599 23.7412 7.59219 22.6429 6.494ZM21.8095 22.375C20.1072 24.0846 17.8735 25.1636 15.4762 25.4345V17.625H17.7143C18.03 17.625 18.3328 17.4995 18.5561 17.2763C18.7793 17.053 18.9048 16.7502 18.9048 16.4345C18.9048 16.1187 18.7793 15.8159 18.5561 15.5927C18.3328 15.3694 18.03 15.244 17.7143 15.244H15.4762V11.9821C15.4762 11.6664 15.6016 11.3636 15.8249 11.1403C16.0481 10.917 16.3509 10.7916 16.6667 10.7916H18.0952C18.411 10.7916 18.7138 10.6662 18.937 10.4429C19.1603 10.2197 19.2857 9.91688 19.2857 9.60114C19.2857 9.28541 19.1603 8.98261 18.937 8.75935C18.7138 8.53609 18.411 8.41067 18.0952 8.41067H16.0714C15.2821 8.41067 14.5251 8.72423 13.967 9.28237C13.4088 9.84052 13.0952 10.5975 13.0952 11.3869V15.244H10.8691C10.5533 15.244 10.2505 15.3694 10.0273 15.5927C9.80401 15.8159 9.67858 16.1187 9.67858 16.4345C9.67858 16.7502 9.80401 17.053 10.0273 17.2763C10.2505 17.4995 10.5533 17.625 10.8691 17.625H13.0952V25.4345C10.8844 25.1822 8.80867 24.2418 7.16126 22.746C5.51384 21.2502 4.378 19.2746 3.91418 17.0983C3.45035 14.922 3.68198 12.6549 4.57635 10.6174C5.47073 8.57987 6.98264 6.87481 8.89852 5.74307C10.8144 4.61133 13.0374 4.11011 15.2536 4.31021C17.4698 4.51031 19.5671 5.40161 21.2493 6.85822C22.9314 8.31483 24.1135 10.2631 24.6284 12.4279C25.1434 14.5927 24.9652 16.8645 24.1191 18.9226C23.5801 20.2121 22.7958 21.3846 21.8095 22.375Z" fill="#180344"/>
</svg>