<svg width="356" height="311" viewBox="0 0 356 311" fill="none" xmlns="http://www.w3.org/2000/svg">
<path d="M103.027 83.2432C112.644 94.8737 120.664 107.404 130.094 119.143" stroke="#FD7528" stroke-width="3.88686" stroke-miterlimit="1.5" stroke-linecap="round" stroke-linejoin="round"/>
<path d="M144.083 73.7744C145.796 77.4783 147.581 81.1729 149.019 84.9695" stroke="#FD7528" stroke-width="3.88686" stroke-miterlimit="1.5" stroke-linecap="round" stroke-linejoin="round"/>
<path d="M153.295 98.1857C153.559 98.9666 153.811 99.7502 154.097 100.525" stroke="#FD7528" stroke-width="3.88686" stroke-miterlimit="1.5" stroke-linecap="round" stroke-linejoin="round"/>
<path d="M218.457 72.2951C212.287 80.9955 205.005 89.4063 200.225 98.7959" stroke="#FD7528" stroke-width="3.88686" stroke-miterlimit="1.5" stroke-linecap="round" stroke-linejoin="round"/>
<path d="M189.809 112.786C188.798 114.111 187.753 115.422 186.766 116.762" stroke="#FD7528" stroke-width="3.88686" stroke-miterlimit="1.5" stroke-linecap="round" stroke-linejoin="round"/>
<path d="M268.007 91.6768C253.104 102.939 237.686 113.591 222.69 124.726" stroke="#FD7528" stroke-width="3.88686" stroke-miterlimit="1.5" stroke-linecap="round" stroke-linejoin="round"/>
<path d="M314.138 119.218C291.334 127.629 268.003 137.262 244.534 144.069" stroke="#FD7528" stroke-width="3.88686" stroke-miterlimit="1.5" stroke-linecap="round" stroke-linejoin="round"/>
<path d="M279.626 111.045C283.057 109.229 286.462 107.375 289.906 105.578" stroke="#FD7528" stroke-width="3.88686" stroke-miterlimit="1.5" stroke-linecap="round" stroke-linejoin="round"/>
<path d="M327.894 165.376C302.279 163.606 276.416 165.318 250.927 167.732" stroke="#FD7528" stroke-width="3.88686" stroke-miterlimit="1.5" stroke-linecap="round" stroke-linejoin="round"/>
<path d="M57.7212 219.86C66.6956 212.68 75.3649 205.026 84.5966 198.104" stroke="#FD7528" stroke-width="3.88686" stroke-miterlimit="1.5" stroke-linecap="round" stroke-linejoin="round"/>
<path d="M97.6829 188.177C99.6245 186.441 101.529 184.652 103.643 183.076" stroke="#FD7528" stroke-width="3.88686" stroke-miterlimit="1.5" stroke-linecap="round" stroke-linejoin="round"/>
<path d="M133.815 191.836C130.773 198.485 127.931 205.2 124.653 211.762" stroke="#FD7528" stroke-width="3.88686" stroke-miterlimit="1.5" stroke-linecap="round" stroke-linejoin="round"/>
<path d="M161.446 198.956C160.14 212.08 159.538 225.266 158.13 238.372" stroke="#FD7528" stroke-width="3.88686" stroke-miterlimit="1.5" stroke-linecap="round" stroke-linejoin="round"/>
<path d="M188.969 192.788C189.641 194.528 190.361 196.257 191.14 197.962" stroke="#FD7528" stroke-width="3.88686" stroke-miterlimit="1.5" stroke-linecap="round" stroke-linejoin="round"/>
<path d="M198.336 213.24C200.935 220.066 203.416 227.075 206.955 233.585" stroke="#FD7528" stroke-width="3.88686" stroke-miterlimit="1.5" stroke-linecap="round" stroke-linejoin="round"/>
<path d="M222.352 188.035C234.483 199.733 245.474 211.469 255.185 224.802" stroke="#FD7528" stroke-width="3.88686" stroke-miterlimit="1.5" stroke-linecap="round" stroke-linejoin="round"/>
<path d="M250.383 184.912C252.269 186.373 254.125 187.841 256.124 189.182" stroke="#FD7528" stroke-width="3.88686" stroke-miterlimit="1.5" stroke-linecap="round" stroke-linejoin="round"/>
<path d="M272.302 197.505C278.006 201.991 284.351 205.751 290.049 210.212" stroke="#FD7528" stroke-width="3.88686" stroke-miterlimit="1.5" stroke-linecap="round" stroke-linejoin="round"/>
</svg>
