<svg xmlns="http://www.w3.org/2000/svg" width="1365" height="903" viewBox="0 0 1365 903" fill="none">
<path d="M60 316.745C26.863 316.745 0 289.882 0 256.745V60.0001C0 26.863 26.8629 0 60 0H1305C1338.14 0 1365 26.8629 1365 60V271.563C1365 304.7 1338.14 331.563 1305 331.563H1274.34C1241.21 331.563 1214.34 358.426 1214.34 391.563V565.154C1214.34 598.291 1241.21 625.154 1274.34 625.154H1280.55C1313.69 625.154 1340.55 652.017 1340.55 685.154V843C1340.55 876.137 1313.69 903 1280.55 903H60C26.8629 903 0 876.137 0 843V693.489C0 660.352 26.8629 633.489 60 633.489H63.9358C97.0729 633.489 123.936 606.626 123.936 573.489V376.745C123.936 343.608 97.073 316.745 63.9359 316.745H60Z" fill="#180344"/>
</svg>