<svg xmlns="http://www.w3.org/2000/svg" width="1365" height="632" viewBox="0 0 1365 632" fill="none">
  <path d="M60 221.686C26.863 221.686 0 194.823 0 161.686V60C0 26.8629 26.8629 0 60 0H1305C1338.14 0 1365 26.8629 1365 60V172.057C1365 205.195 1338.14 232.057 1305 232.057H1274.34C1241.21 232.057 1214.34 258.92 1214.34 292.057V377.538C1214.34 410.676 1241.21 437.538 1274.34 437.538H1280.55C1313.69 437.538 1340.55 464.401 1340.55 497.538V572C1340.55 605.137 1313.69 632 1280.55 632H60C26.8629 632 0 605.137 0 572V503.372C0 470.235 26.8629 443.372 60 443.372H63.9358C97.0729 443.372 123.936 416.509 123.936 383.372V281.686C123.936 248.549 97.073 221.686 63.9359 221.686H60Z" fill="#180344"/>
</svg>