<svg xmlns="http://www.w3.org/2000/svg" width="32" height="29" viewBox="0 0 32 29" fill="none">
  <path d="M31.4924 3.81431C30.3514 4.37751 29.1258 4.75652 27.8393 4.92747C29.1532 4.05284 30.1607 2.66802 30.6352 1.01683C29.4072 1.82652 28.0456 2.4149 26.5958 2.73295C25.4357 1.35872 23.7833 0.5 21.9543 0.5C18.4419 0.5 15.5948 3.66589 15.5948 7.56858C15.5948 8.12251 15.652 8.66319 15.7593 9.17869C10.474 8.88449 5.78846 6.06979 2.65043 1.79206C2.10437 2.83631 1.7908 4.05019 1.7908 5.34756C1.7908 7.79916 2.91272 9.9632 4.61885 11.2301C3.57681 11.193 2.59558 10.8749 1.73835 10.3462C1.73835 10.3767 1.73835 10.4045 1.73835 10.435C1.73835 13.8606 3.92972 16.7177 6.84003 17.3657C6.30709 17.5274 5.74434 17.6135 5.16371 17.6135C4.75477 17.6135 4.35536 17.5685 3.96787 17.4876C4.77742 20.2957 7.12618 22.3405 9.90892 22.3975C7.73304 24.2938 4.99084 25.4242 2.01018 25.4242C1.49751 25.4242 0.990797 25.3911 0.492432 25.3248C3.30736 27.3299 6.64927 28.5 10.2416 28.5C21.94 28.5 28.3353 17.7288 28.3353 8.38755C28.3353 8.08143 28.3294 7.77663 28.3174 7.47316C29.561 6.47529 30.64 5.23094 31.4924 3.81431Z" fill="white"/>
</svg>