<svg width="28" height="28" viewBox="0 0 28 28" fill="none" xmlns="http://www.w3.org/2000/svg">
<path d="M25.6377 7.19611C24.7848 7.57337 23.8804 7.82113 22.9543 7.93119C23.9304 7.34741 24.661 6.42865 25.0098 5.34613C24.0938 5.89129 23.0895 6.27335 22.0427 6.48003C21.3396 5.72772 20.4076 5.22878 19.3917 5.06079C18.3757 4.8928 17.3328 5.06515 16.4249 5.55107C15.517 6.03698 14.7951 6.80923 14.3714 7.74775C13.9477 8.68627 13.8459 9.73849 14.0819 10.7408C12.2243 10.6477 10.4069 10.1649 8.7479 9.3239C7.0889 8.48285 5.62531 7.3023 4.45217 5.85889C4.03692 6.57213 3.8187 7.38293 3.81987 8.20825C3.81987 9.8281 4.64432 11.2592 5.89775 12.097C5.15598 12.0737 4.43053 11.8733 3.78188 11.5128V11.5708C3.78211 12.6497 4.15542 13.6952 4.83853 14.5302C5.52164 15.3652 6.4725 15.9383 7.5299 16.1522C6.84131 16.3389 6.11929 16.3664 5.4185 16.2327C5.71663 17.1613 6.2977 17.9734 7.08035 18.5553C7.863 19.1373 8.80805 19.4599 9.78317 19.478C8.81403 20.2391 7.70437 20.8018 6.51763 21.1338C5.3309 21.4658 4.09036 21.5606 2.86694 21.4129C5.00258 22.7863 7.48867 23.5155 10.0278 23.5131C18.622 23.5131 23.3218 16.3936 23.3218 10.2191C23.3218 10.018 23.3162 9.8147 23.3073 9.61585C24.2221 8.95468 25.0116 8.13565 25.6388 7.19723L25.6377 7.19611Z" fill="#180344"/>
</svg>
